<svg width="3147" height="4785" viewBox="0 0 3147 4785" fill="none" xmlns="http://www.w3.org/2000/svg">
<g opacity="0.8">
<rect x="487" y="4529.4" width="2096.81" height="372.831" rx="186.416" transform="rotate(-30 487 4529.4)" fill="url(#paint0_linear_38_7)" fill-opacity="0.5"/>
<ellipse cx="1141.5" cy="3539" rx="394.5" ry="162" fill="url(#paint1_radial_38_7)"/>
<ellipse cx="1503" cy="3366" rx="395" ry="162" transform="rotate(-180 1503 3366)" fill="url(#paint2_radial_38_7)"/>
<ellipse cx="1331" cy="3423" rx="185" ry="76" transform="rotate(-180 1331 3423)" fill="url(#paint3_radial_38_7)"/>
<path d="M1118.5 3405C1118.5 3394.68 1123.59 3384.81 1132.89 3375.78C1142.19 3366.74 1155.67 3358.58 1172.38 3351.72C1205.78 3338 1251.96 3329.5 1303 3329.5C1354.04 3329.5 1400.22 3338 1433.62 3351.72C1450.33 3358.58 1463.81 3366.74 1473.11 3375.78C1482.41 3384.81 1487.5 3394.68 1487.5 3405C1487.5 3415.32 1482.41 3425.19 1473.11 3434.22C1463.81 3443.26 1450.33 3451.42 1433.62 3458.28C1400.22 3472 1354.04 3480.5 1303 3480.5C1251.96 3480.5 1205.78 3472 1172.38 3458.28C1155.67 3451.42 1142.19 3443.26 1132.89 3434.22C1123.59 3425.19 1118.5 3415.32 1118.5 3405Z" stroke="url(#paint4_linear_38_7)"/>
<path d="M1326.65 3581.49C1266.93 3597 1209.65 3598.6 1165.34 3588.66C1120.99 3578.71 1089.77 3557.25 1081.85 3526.79C1073.94 3496.33 1090.77 3462.39 1124.66 3432.11C1158.54 3401.85 1209.35 3375.36 1269.07 3359.85C1328.79 3344.33 1386.07 3342.74 1430.39 3352.68C1474.74 3362.63 1505.96 3384.09 1513.87 3414.55C1521.79 3445.01 1504.96 3478.95 1471.06 3509.23C1437.19 3539.48 1386.38 3565.97 1326.65 3581.49Z" stroke="url(#paint5_linear_38_7)"/>
<rect x="604.683" y="2726.68" width="186" height="52" rx="26" transform="rotate(-30 604.683 2726.68)" fill="url(#paint6_radial_38_7)" stroke="url(#paint7_linear_38_7)"/>
<rect x="1108.68" y="2623.76" width="1156.15" height="55.1176" rx="27.5588" transform="rotate(-30 1108.68 2623.76)" fill="url(#paint8_radial_38_7)" stroke="url(#paint9_linear_38_7)"/>
<rect x="147.683" y="4145.46" width="1141.55" height="100.045" rx="43.9319" transform="rotate(-30 147.683 4145.46)" fill="url(#paint10_linear_38_7)" stroke="url(#paint11_linear_38_7)"/>
<rect x="1238.68" y="3262.45" width="373.538" height="65.5964" rx="32.7982" transform="rotate(-30 1238.68 3262.45)" fill="url(#paint12_linear_38_7)" stroke="url(#paint13_linear_38_7)"/>
<path d="M2026.22 2107.67L1269.95 2547.74" stroke="url(#paint14_linear_38_7)" stroke-linecap="round"/>
<path d="M2172.91 2088.11L1416.64 2528.18" stroke="url(#paint15_linear_38_7)" stroke-width="2" stroke-linecap="round"/>
<path d="M2149 3019L1917 3154" stroke="url(#paint16_linear_38_7)" stroke-width="15" stroke-linecap="round"/>
<circle cx="1865.67" cy="3040.46" r="54.0494" transform="rotate(-18.6296 1865.67 3040.46)" fill="url(#paint17_radial_38_7)"/>
<circle cx="1865.67" cy="3040.46" r="54.0494" transform="rotate(-18.6296 1865.67 3040.46)" fill="url(#paint18_radial_38_7)"/>
<circle cx="1865.67" cy="3040.46" r="68.649" transform="rotate(-18.6296 1865.67 3040.46)" fill="url(#paint19_radial_38_7)"/>
<circle cx="1865.67" cy="3040.46" r="68.649" transform="rotate(-18.6296 1865.67 3040.46)" fill="url(#paint20_radial_38_7)" fill-opacity="0.5"/>
<path d="M1928.43 3047.47C1928.07 3050.94 1926 3054.11 1922.47 3056.88C1918.94 3059.65 1913.98 3061.98 1907.93 3063.75C1895.82 3067.29 1879.44 3068.57 1861.66 3066.72C1843.87 3064.87 1828.1 3060.24 1816.99 3054.29C1811.42 3051.31 1807.05 3048 1804.17 3044.57C1801.28 3041.13 1799.92 3037.6 1800.28 3034.13C1800.64 3030.66 1802.7 3027.49 1806.23 3024.72C1809.76 3021.95 1814.72 3019.62 1820.78 3017.85C1832.88 3014.31 1849.27 3013.03 1867.05 3014.88C1884.83 3016.73 1900.6 3021.35 1911.72 3027.31C1917.28 3030.29 1921.65 3033.59 1924.54 3037.03C1927.42 3040.46 1928.79 3044 1928.43 3047.47Z" stroke="url(#paint21_linear_38_7)" stroke-opacity="0.5"/>
<path d="M1923.58 3015.82C1923.28 3018.68 1921.58 3021.3 1918.66 3023.59C1915.74 3025.88 1911.63 3027.81 1906.6 3029.28C1896.55 3032.22 1882.95 3033.28 1868.18 3031.75C1853.41 3030.21 1840.32 3026.37 1831.09 3021.42C1826.48 3018.95 1822.85 3016.21 1820.47 3013.37C1818.08 3010.53 1816.96 3007.61 1817.25 3004.76C1817.55 3001.91 1819.25 2999.29 1822.17 2997C1825.09 2994.7 1829.2 2992.77 1834.23 2991.3C1844.27 2988.36 1857.88 2987.3 1872.65 2988.84C1887.42 2990.37 1900.51 2994.21 1909.74 2999.16C1914.35 3001.63 1917.98 3004.37 1920.36 3007.21C1922.75 3010.06 1923.87 3012.97 1923.58 3015.82Z" stroke="url(#paint22_linear_38_7)" stroke-opacity="0.5"/>
<path d="M1902.09 2992.26C1901.93 2993.8 1901.02 2995.23 1899.4 2996.5C1897.77 2997.77 1895.48 2998.85 1892.66 2999.68C1887.02 3001.33 1879.36 3001.93 1871.04 3001.06C1862.72 3000.2 1855.35 2998.04 1850.17 2995.26C1847.58 2993.87 1845.56 2992.34 1844.23 2990.76C1842.91 2989.18 1842.31 2987.59 1842.47 2986.06C1842.63 2984.52 1843.54 2983.09 1845.16 2981.82C1846.78 2980.55 1849.08 2979.47 1851.9 2978.64C1857.54 2976.99 1865.2 2976.39 1873.52 2977.26C1881.84 2978.13 1889.21 2980.29 1894.39 2983.06C1896.98 2984.45 1899 2985.98 1900.33 2987.56C1901.65 2989.14 1902.25 2990.73 1902.09 2992.26Z" stroke="url(#paint23_linear_38_7)" stroke-opacity="0.5"/>
<path d="M1887.31 3093.3C1887.15 3094.83 1886.23 3096.26 1884.61 3097.53C1882.99 3098.8 1880.7 3099.89 1877.88 3100.71C1872.23 3102.36 1864.58 3102.96 1856.26 3102.1C1847.93 3101.23 1840.57 3099.07 1835.39 3096.29C1832.79 3094.9 1830.77 3093.37 1829.45 3091.79C1828.12 3090.22 1827.52 3088.63 1827.68 3087.09C1827.84 3085.56 1828.76 3084.12 1830.38 3082.85C1832 3081.58 1834.29 3080.5 1837.12 3079.68C1842.76 3078.02 1850.41 3077.43 1858.73 3078.29C1867.06 3079.16 1874.42 3081.32 1879.6 3084.1C1882.2 3085.49 1884.22 3087.02 1885.54 3088.59C1886.87 3090.17 1887.47 3091.76 1887.31 3093.3Z" stroke="url(#paint24_linear_38_7)" stroke-opacity="0.5"/>
<path d="M1913.76 3075.19C1913.46 3078.04 1911.76 3080.66 1908.84 3082.95C1905.92 3085.24 1901.81 3087.17 1896.79 3088.65C1886.74 3091.58 1873.13 3092.65 1858.37 3091.11C1843.6 3089.57 1830.5 3085.73 1821.28 3080.79C1816.66 3078.31 1813.04 3075.58 1810.65 3072.73C1808.26 3069.89 1807.14 3066.98 1807.44 3064.12C1807.73 3061.27 1809.43 3058.65 1812.35 3056.36C1815.28 3054.07 1819.39 3052.13 1824.41 3050.66C1834.46 3047.72 1848.06 3046.66 1862.83 3048.2C1877.6 3049.74 1890.69 3053.58 1899.92 3058.52C1904.53 3060.99 1908.16 3063.73 1910.55 3066.58C1912.93 3069.42 1914.06 3072.33 1913.76 3075.19Z" stroke="url(#paint25_linear_38_7)" stroke-opacity="0.5"/>
<circle cx="2404.84" cy="2393.32" r="26.4733" transform="rotate(-57.8949 2404.84 2393.32)" fill="url(#paint26_radial_38_7)"/>
<circle cx="2404.84" cy="2393.32" r="26.4733" transform="rotate(-57.8949 2404.84 2393.32)" fill="url(#paint27_radial_38_7)"/>
<circle cx="2404.84" cy="2393.32" r="33.6242" transform="rotate(-57.8949 2404.84 2393.32)" fill="url(#paint28_radial_38_7)"/>
<circle cx="2404.84" cy="2393.32" r="33.6242" transform="rotate(-57.8949 2404.84 2393.32)" fill="url(#paint29_radial_38_7)" fill-opacity="0.5"/>
<path d="M2430.59 2376.66C2431.48 2378.02 2431.69 2379.78 2431.21 2381.88C2430.74 2383.99 2429.6 2386.38 2427.87 2388.91C2424.4 2393.97 2418.61 2399.51 2411.31 2404.31C2404.01 2409.11 2396.63 2412.23 2390.61 2413.41C2387.6 2414 2384.95 2414.1 2382.83 2413.7C2380.72 2413.3 2379.18 2412.41 2378.29 2411.05C2377.4 2409.7 2377.19 2407.93 2377.66 2405.83C2378.13 2403.73 2379.27 2401.34 2381.01 2398.81C2384.48 2393.75 2390.27 2388.2 2397.57 2383.41C2404.86 2378.61 2412.25 2375.49 2418.27 2374.31C2421.28 2373.72 2423.93 2373.62 2426.05 2374.02C2428.16 2374.42 2429.7 2375.31 2430.59 2376.66Z" stroke="url(#paint30_linear_38_7)" stroke-opacity="0.5"/>
<path d="M2418.94 2366.17C2419.66 2367.27 2419.84 2368.71 2419.45 2370.44C2419.06 2372.17 2418.12 2374.15 2416.68 2376.25C2413.8 2380.45 2409 2385.04 2402.94 2389.03C2396.89 2393.01 2390.76 2395.6 2385.77 2396.57C2383.27 2397.06 2381.09 2397.14 2379.34 2396.81C2377.6 2396.48 2376.34 2395.75 2375.62 2394.65C2374.9 2393.55 2374.72 2392.11 2375.11 2390.38C2375.5 2388.65 2376.44 2386.67 2377.88 2384.57C2380.76 2380.38 2385.56 2375.78 2391.62 2371.8C2397.67 2367.81 2403.8 2365.23 2408.79 2364.25C2411.29 2363.76 2413.48 2363.68 2415.22 2364.01C2416.96 2364.34 2418.22 2365.07 2418.94 2366.17Z" stroke="url(#paint31_linear_38_7)" stroke-opacity="0.5"/>
<path d="M2403.49 2363.9C2403.86 2364.45 2403.96 2365.2 2403.75 2366.14C2403.54 2367.08 2403.02 2368.18 2402.22 2369.35C2400.61 2371.69 2397.92 2374.27 2394.52 2376.5C2391.11 2378.74 2387.68 2380.19 2384.89 2380.74C2383.5 2381.01 2382.29 2381.05 2381.34 2380.87C2380.4 2380.69 2379.75 2380.3 2379.38 2379.75C2379.02 2379.19 2378.92 2378.44 2379.13 2377.5C2379.34 2376.56 2379.86 2375.47 2380.66 2374.29C2382.26 2371.95 2384.95 2369.37 2388.36 2367.14C2391.76 2364.9 2395.19 2363.45 2397.98 2362.91C2399.37 2362.63 2400.58 2362.59 2401.53 2362.77C2402.48 2362.95 2403.13 2363.34 2403.49 2363.9Z" stroke="url(#paint32_linear_38_7)" stroke-opacity="0.5"/>
<path d="M2429.21 2406.79C2429.57 2407.35 2429.67 2408.1 2429.46 2409.04C2429.25 2409.98 2428.73 2411.07 2427.93 2412.24C2426.32 2414.58 2423.63 2417.16 2420.23 2419.4C2416.83 2421.64 2413.39 2423.09 2410.61 2423.63C2409.21 2423.9 2408.01 2423.95 2407.06 2423.77C2406.11 2423.59 2405.46 2423.2 2405.1 2422.64C2404.73 2422.09 2404.63 2421.34 2404.84 2420.4C2405.05 2419.45 2405.57 2418.36 2406.37 2417.19C2407.98 2414.85 2410.67 2412.27 2414.07 2410.03C2417.47 2407.79 2420.91 2406.35 2423.69 2405.8C2425.09 2405.53 2426.29 2405.49 2427.24 2405.67C2428.19 2405.84 2428.84 2406.23 2429.21 2406.79Z" stroke="url(#paint33_linear_38_7)" stroke-opacity="0.5"/>
<path d="M2433.62 2391.72C2434.34 2392.82 2434.52 2394.27 2434.13 2396C2433.74 2397.73 2432.8 2399.71 2431.36 2401.8C2428.48 2406 2423.68 2410.6 2417.62 2414.58C2411.57 2418.56 2405.44 2421.15 2400.45 2422.13C2397.95 2422.62 2395.77 2422.7 2394.02 2422.37C2392.28 2422.04 2391.02 2421.31 2390.3 2420.21C2389.58 2419.11 2389.4 2417.67 2389.79 2415.93C2390.18 2414.2 2391.12 2412.23 2392.56 2410.13C2395.44 2405.93 2400.24 2401.33 2406.3 2397.35C2412.35 2393.37 2418.48 2390.78 2423.47 2389.8C2425.97 2389.32 2428.16 2389.23 2429.9 2389.56C2431.64 2389.89 2432.9 2390.62 2433.62 2391.72Z" stroke="url(#paint34_linear_38_7)" stroke-opacity="0.5"/>
<g filter="url(#filter0_d_38_7)">
<mask id="mask0_38_7" style="mask-type:alpha" maskUnits="userSpaceOnUse" x="730" y="2657" width="35" height="26">
<path d="M763.438 2660.94C764.271 2661.16 764.767 2662.02 764.544 2662.85L760.88 2676.52C760.724 2677.11 760.243 2677.55 759.647 2677.65L732.196 2682.55C730.765 2682.8 729.79 2681.14 730.713 2680.02L748.873 2657.98C749.262 2657.51 749.892 2657.31 750.484 2657.47L763.438 2660.94Z" fill="#00D1FF"/>
</mask>
<g mask="url(#mask0_38_7)">
<path d="M763.438 2660.94C764.271 2661.16 764.767 2662.02 764.544 2662.85L760.88 2676.52C760.724 2677.11 760.243 2677.55 759.647 2677.65L732.196 2682.55C730.765 2682.8 729.79 2681.14 730.713 2680.02L748.873 2657.98C749.262 2657.51 749.892 2657.31 750.484 2657.47L763.438 2660.94Z" fill="#00D1FF"/>
<path d="M746.601 2666.14L748.538 2656.55L762.903 2660.4L746.601 2666.14Z" fill="#D9D9D9" fill-opacity="0.85"/>
<path d="M728.044 2685.43L730.91 2670.74L771.116 2675.83L728.044 2685.43Z" fill="#313EAF" fill-opacity="0.85"/>
<path d="M752.741 2673.28L746.919 2660L775.3 2669.46L752.741 2673.28Z" fill="#B470CC" fill-opacity="0.85"/>
<path d="M762.565 2676.56L770.57 2666.19L735.64 2674.92L762.565 2676.56Z" fill="#8C3EDB" fill-opacity="0.85"/>
</g>
</g>
<g filter="url(#filter1_dd_38_7)">
<mask id="mask1_38_7" style="mask-type:alpha" maskUnits="userSpaceOnUse" x="1037" y="3614" width="108" height="79">
<path d="M1141.12 3625.26C1143.73 3625.95 1145.28 3628.63 1144.58 3631.23L1133.13 3673.95C1132.64 3675.78 1131.14 3677.16 1129.27 3677.49L1043.49 3692.77C1039.02 3693.57 1035.97 3688.37 1038.86 3684.87L1095.61 3616.02C1096.82 3614.54 1098.79 3613.91 1100.64 3614.41L1141.12 3625.26Z" fill="#00D1FF"/>
</mask>
<g mask="url(#mask1_38_7)">
<path d="M1141.12 3625.26C1143.73 3625.95 1145.28 3628.63 1144.58 3631.23L1133.13 3673.95C1132.64 3675.78 1131.14 3677.16 1129.27 3677.49L1043.49 3692.77C1039.02 3693.57 1035.97 3688.37 1038.86 3684.87L1095.61 3616.02C1096.82 3614.54 1098.79 3613.91 1100.64 3614.41L1141.12 3625.26Z" fill="#00D1FF"/>
<path d="M1088.51 3641.51L1094.56 3611.52L1139.45 3623.55L1088.51 3641.51Z" fill="#D9D9D9" fill-opacity="0.85"/>
<path d="M1030.51 3701.77L1039.47 3655.87L1165.12 3671.79L1030.51 3701.77Z" fill="#313EAF" fill-opacity="0.85"/>
<path d="M1107.69 3663.83L1089.5 3622.33L1178.19 3651.89L1107.69 3663.83Z" fill="white" fill-opacity="0.85"/>
<path d="M1138.39 3674.06L1163.41 3641.66L1054.25 3668.95L1138.39 3674.06Z" fill="#3EDBD1" fill-opacity="0.85"/>
</g>
</g>
<rect x="476" y="1592.4" width="2096.81" height="185.964" rx="92.9821" transform="rotate(-30 476 1592.4)" fill="url(#paint35_linear_38_7)" fill-opacity="0.5"/>
<rect x="-68" y="980.403" width="2096.81" height="372.831" rx="186.416" transform="rotate(-30 -68 980.403)" fill="url(#paint36_linear_38_7)" fill-opacity="0.5"/>
<ellipse cx="2324.5" cy="1298" rx="253.5" ry="104" fill="url(#paint37_radial_38_7)"/>
<ellipse cx="2506.5" cy="1208" rx="253.5" ry="104" transform="rotate(-180 2506.5 1208)" fill="url(#paint38_radial_38_7)"/>
<rect x="604.683" y="905.683" width="186" height="52" rx="26" transform="rotate(-30 604.683 905.683)" fill="url(#paint39_radial_38_7)" stroke="url(#paint40_linear_38_7)"/>
<rect x="1939" y="513.447" width="353.978" height="16.2152" rx="8.10759" transform="rotate(-30 1939 513.447)" fill="url(#paint41_radial_38_7)" stroke="url(#paint42_linear_38_7)"/>
<rect x="1187.3" y="1645.59" width="1003.81" height="87.8638" rx="43.9319" transform="rotate(-30 1187.3 1645.59)" fill="url(#paint43_linear_38_7)" stroke="url(#paint44_linear_38_7)"/>
<rect x="1642.04" y="1346.04" width="373.538" height="65.5964" rx="32.7982" transform="rotate(-30 1642.04 1346.04)" fill="url(#paint45_linear_38_7)" stroke="url(#paint46_linear_38_7)"/>
<path d="M2220 355L1988 490" stroke="url(#paint47_linear_38_7)" stroke-linecap="round"/>
<path d="M2265 349L2033 484" stroke="url(#paint48_linear_38_7)" stroke-width="2" stroke-linecap="round"/>
<path d="M2149 1198L1917 1333" stroke="url(#paint49_linear_38_7)" stroke-width="15" stroke-linecap="round"/>
<circle cx="2282.38" cy="529.794" r="74.9601" fill="url(#paint50_radial_38_7)"/>
<circle cx="2282.38" cy="529.794" r="74.9601" fill="url(#paint51_radial_38_7)"/>
<circle cx="2282.38" cy="529.791" r="95.2079" fill="url(#paint52_radial_38_7)"/>
<circle cx="2282.38" cy="529.791" r="95.2079" fill="url(#paint53_radial_38_7)" fill-opacity="0.5"/>
<path d="M2361.92 566.879C2359.88 571.342 2355.71 574.628 2349.81 576.712C2343.92 578.797 2336.34 579.663 2327.58 579.308C2310.07 578.598 2287.95 573.01 2265.38 562.691C2242.82 552.373 2224.12 539.298 2212.12 526.519C2206.13 520.128 2201.83 513.831 2199.55 508.007C2197.27 502.186 2197.02 496.88 2199.06 492.416C2201.1 487.953 2205.28 484.667 2211.17 482.583C2217.07 480.498 2224.64 479.632 2233.4 479.987C2250.91 480.697 2273.03 486.285 2295.6 496.604C2318.17 506.922 2336.87 519.997 2348.86 532.776C2354.86 539.167 2359.16 545.464 2361.44 551.288C2363.72 557.109 2363.96 562.415 2361.92 566.879Z" stroke="url(#paint54_linear_38_7)" stroke-opacity="0.5"/>
<path d="M2369.57 523.144C2367.88 526.826 2364.44 529.544 2359.55 531.271C2354.67 532.999 2348.38 533.719 2341.11 533.424C2326.57 532.835 2308.2 528.194 2289.45 519.623C2270.71 511.052 2255.18 500.193 2245.22 489.583C2240.24 484.277 2236.68 479.053 2234.79 474.227C2232.9 469.403 2232.7 465.019 2234.38 461.337C2236.07 457.655 2239.51 454.937 2244.4 453.21C2249.28 451.482 2255.57 450.763 2262.84 451.057C2277.38 451.647 2295.75 456.287 2314.49 464.858C2333.24 473.429 2348.77 484.289 2358.72 494.898C2363.7 500.204 2367.27 505.428 2369.16 510.254C2371.05 515.078 2371.25 519.462 2369.57 523.144Z" stroke="url(#paint55_linear_38_7)" stroke-opacity="0.5"/>
<path d="M2351.77 482.664C2350.85 484.673 2348.96 486.177 2346.24 487.14C2343.51 488.103 2339.99 488.509 2335.9 488.343C2327.72 488.012 2317.37 485.4 2306.8 480.567C2296.23 475.734 2287.49 469.615 2281.89 463.648C2279.09 460.663 2277.09 457.735 2276.04 455.043C2274.98 452.353 2274.88 449.941 2275.8 447.932C2276.72 445.922 2278.61 444.419 2281.33 443.456C2284.06 442.492 2287.58 442.086 2291.67 442.252C2299.85 442.583 2310.2 445.195 2320.77 450.028C2331.34 454.861 2340.08 460.98 2345.68 466.948C2348.48 469.933 2350.48 472.861 2351.53 475.552C2352.59 478.242 2352.69 480.654 2351.77 482.664Z" stroke="url(#paint56_linear_38_7)" stroke-opacity="0.5"/>
<path d="M2287.58 608.891C2286.66 610.901 2284.77 612.404 2282.05 613.367C2279.32 614.331 2275.8 614.737 2271.71 614.571C2263.53 614.239 2253.18 611.627 2242.61 606.795C2232.04 601.962 2223.3 595.843 2217.7 589.875C2214.9 586.89 2212.9 583.962 2211.85 581.27C2210.79 578.581 2210.69 576.169 2211.61 574.159C2212.53 572.149 2214.42 570.646 2217.14 569.683C2219.87 568.719 2223.39 568.313 2227.48 568.479C2235.66 568.811 2246.01 571.423 2256.58 576.255C2267.15 581.088 2275.89 587.207 2281.49 593.175C2284.29 596.16 2286.29 599.088 2287.34 601.78C2288.4 604.469 2288.5 606.881 2287.58 608.891Z" stroke="url(#paint57_linear_38_7)" stroke-opacity="0.5"/>
<path d="M2330.36 596.81C2328.68 600.492 2325.24 603.21 2320.35 604.937C2315.46 606.665 2309.18 607.385 2301.91 607.09C2287.37 606.501 2269 601.86 2250.25 593.289C2231.51 584.718 2215.98 573.859 2206.02 563.249C2201.04 557.943 2197.48 552.719 2195.59 547.893C2193.7 543.069 2193.5 538.685 2195.18 535.003C2196.87 531.321 2200.31 528.603 2205.2 526.876C2210.08 525.148 2216.37 524.429 2223.64 524.723C2238.17 525.313 2256.55 529.953 2275.29 538.524C2294.04 547.095 2309.57 557.955 2319.52 568.564C2324.5 573.87 2328.07 579.094 2329.96 583.92C2331.85 588.744 2332.05 593.128 2330.36 596.81Z" stroke="url(#paint58_linear_38_7)" stroke-opacity="0.5"/>
<g filter="url(#filter2_d_38_7)">
<mask id="mask2_38_7" style="mask-type:alpha" maskUnits="userSpaceOnUse" x="730" y="836" width="35" height="26">
<path d="M763.438 839.941C764.271 840.164 764.767 841.02 764.544 841.852L760.88 855.523C760.724 856.108 760.243 856.549 759.647 856.655L732.196 861.546C730.765 861.801 729.79 860.138 730.713 859.018L748.873 836.985C749.262 836.513 749.892 836.311 750.484 836.47L763.438 839.941Z" fill="#00D1FF"/>
</mask>
<g mask="url(#mask2_38_7)">
<path d="M763.438 839.941C764.271 840.164 764.767 841.02 764.544 841.852L760.88 855.523C760.724 856.108 760.243 856.549 759.647 856.655L732.196 861.546C730.765 861.801 729.79 860.138 730.713 859.018L748.873 836.985C749.262 836.513 749.892 836.311 750.484 836.47L763.438 839.941Z" fill="#00D1FF"/>
<path d="M746.601 845.142L748.538 835.547L762.903 839.396L746.601 845.142Z" fill="#D9D9D9" fill-opacity="0.85"/>
<path d="M728.044 864.426L730.91 849.737L771.116 854.832L728.044 864.426Z" fill="#313EAF" fill-opacity="0.85"/>
<path d="M752.741 852.284L746.919 839.003L775.3 848.464L752.741 852.284Z" fill="#B470CC" fill-opacity="0.85"/>
<path d="M762.565 855.559L770.57 845.189L735.64 853.921L762.565 855.559Z" fill="#8C3EDB" fill-opacity="0.85"/>
</g>
</g>
<g filter="url(#filter3_dd_38_7)">
<mask id="mask3_38_7" style="mask-type:alpha" maskUnits="userSpaceOnUse" x="1969" y="1178" width="96" height="70">
<path d="M2060.9 1188.08C2063.19 1188.69 2064.55 1191.04 2063.94 1193.33L2053.87 1230.9C2053.44 1232.51 2052.12 1233.72 2050.48 1234.01L1975.04 1247.45C1971.1 1248.16 1968.42 1243.59 1970.96 1240.51L2020.87 1179.95C2021.94 1178.65 2023.67 1178.1 2025.3 1178.54L2060.9 1188.08Z" fill="#00D1FF"/>
</mask>
<g mask="url(#mask3_38_7)">
<path d="M2060.9 1188.08C2063.19 1188.69 2064.55 1191.04 2063.94 1193.33L2053.87 1230.9C2053.44 1232.51 2052.12 1233.72 2050.48 1234.01L1975.04 1247.45C1971.1 1248.16 1968.42 1243.59 1970.96 1240.51L2020.87 1179.95C2021.94 1178.65 2023.67 1178.1 2025.3 1178.54L2060.9 1188.08Z" fill="#00D1FF"/>
<path d="M2014.62 1202.37L2019.95 1176L2059.43 1186.58L2014.62 1202.37Z" fill="#D9D9D9" fill-opacity="0.85"/>
<path d="M1963.62 1255.37L1971.5 1215L2082 1229L1963.62 1255.37Z" fill="#313EAF" fill-opacity="0.85"/>
<path d="M2031.5 1222L2015.5 1185.5L2093.5 1211.5L2031.5 1222Z" fill="white" fill-opacity="0.85"/>
<path d="M2058.5 1231L2080.5 1202.5L1984.5 1226.5L2058.5 1231Z" fill="#3EDBD1" fill-opacity="0.85"/>
</g>
</g>
<rect x="387.285" y="2443.16" width="1356.31" height="372.831" rx="186.416" transform="rotate(-30 387.285 2443.16)" fill="url(#paint59_linear_38_7)" fill-opacity="0.5"/>
<circle cx="719.001" cy="1631" r="174" fill="url(#paint60_radial_38_7)"/>
<circle cx="719.001" cy="1631" r="174" fill="url(#paint61_radial_38_7)"/>
<circle cx="719.001" cy="1631" r="221" fill="url(#paint62_radial_38_7)"/>
<circle cx="719.001" cy="1631" r="221" fill="url(#paint63_radial_38_7)" fill-opacity="0.5"/>
<path d="M903.339 1716.94C898.652 1727.2 889.054 1734.77 875.428 1739.59C861.795 1744.41 844.253 1746.42 823.953 1745.6C783.361 1743.95 732.055 1730.99 679.7 1707.06C627.344 1683.12 583.979 1652.79 556.179 1623.17C542.277 1608.35 532.321 1593.77 527.048 1580.31C521.778 1566.85 521.23 1554.63 525.917 1544.38C530.604 1534.13 540.202 1526.55 553.828 1521.73C567.461 1516.91 585.003 1514.9 605.303 1515.73C645.895 1517.37 697.201 1530.33 749.556 1554.27C801.912 1578.21 845.277 1608.53 873.077 1638.16C886.979 1652.97 896.935 1667.55 902.208 1681.02C907.478 1694.48 908.026 1706.69 903.339 1716.94Z" stroke="url(#paint64_linear_38_7)" stroke-opacity="0.5" stroke-width="3"/>
<path d="M1035.15 1602.71C1036.84 1621.09 1029.37 1639.57 1014.11 1657.31C998.843 1675.06 975.869 1691.96 946.827 1707.08C888.75 1737.33 806.684 1760.31 714.404 1768.8C622.124 1777.29 537.241 1769.67 474.621 1750.54C443.306 1740.97 417.634 1728.54 399.388 1713.88C381.147 1699.22 370.426 1682.41 368.735 1664.04C367.044 1645.66 374.517 1627.18 389.777 1609.43C405.041 1591.69 428.014 1574.79 457.057 1559.66C515.134 1529.42 597.2 1506.44 689.48 1497.95C781.76 1489.45 866.642 1497.08 929.263 1516.21C960.577 1525.78 986.249 1538.2 1004.5 1552.87C1022.74 1567.53 1033.46 1584.34 1035.15 1602.71Z" fill="url(#paint65_radial_38_7)" stroke="url(#paint66_linear_38_7)" stroke-width="3"/>
<path d="M921.081 1615.43C917.223 1623.86 909.315 1630.12 898.033 1634.11C886.745 1638.1 872.203 1639.77 855.353 1639.09C821.662 1637.72 779.059 1626.97 735.575 1607.09C692.09 1587.2 656.084 1562.02 633.01 1537.43C621.47 1525.14 613.219 1513.04 608.854 1501.9C604.49 1490.75 604.051 1480.68 607.908 1472.24C611.766 1463.8 619.674 1457.54 630.956 1453.55C642.244 1449.56 656.786 1447.89 673.636 1448.58C707.327 1449.94 749.93 1460.7 793.414 1480.58C836.899 1500.46 872.905 1525.65 895.979 1550.23C907.519 1562.53 915.77 1574.62 920.135 1585.77C924.499 1596.91 924.938 1606.99 921.081 1615.43Z" stroke="url(#paint67_linear_38_7)" stroke-opacity="0.5" stroke-width="3"/>
<path d="M879.769 1521.46C877.686 1526.02 873.392 1529.46 867.126 1531.67C860.854 1533.89 852.729 1534.83 843.261 1534.45C824.334 1533.68 800.353 1527.63 775.847 1516.43C751.342 1505.22 731.079 1491.04 718.116 1477.23C711.632 1470.32 707.028 1463.56 704.603 1457.37C702.179 1451.18 701.972 1445.68 704.054 1441.12C706.137 1436.57 710.431 1433.13 716.697 1430.91C722.969 1428.69 731.094 1427.75 740.562 1428.14C759.49 1428.9 783.471 1434.95 807.976 1446.16C832.482 1457.36 852.745 1471.54 865.707 1485.36C872.191 1492.26 876.795 1499.03 879.221 1505.22C881.644 1511.41 881.852 1516.91 879.769 1521.46Z" stroke="url(#paint68_linear_38_7)" stroke-opacity="0.5" stroke-width="3"/>
<path d="M730.769 1814.46C728.686 1819.02 724.392 1822.46 718.126 1824.67C711.854 1826.89 703.729 1827.83 694.261 1827.45C675.334 1826.68 651.353 1820.63 626.847 1809.43C602.342 1798.22 582.079 1784.04 569.116 1770.23C562.632 1763.32 558.028 1756.56 555.603 1750.37C553.179 1744.18 552.972 1738.68 555.054 1734.12C557.137 1729.57 561.431 1726.13 567.697 1723.91C573.969 1721.69 582.094 1720.75 591.562 1721.14C610.49 1721.9 634.471 1727.95 658.976 1739.16C683.482 1750.36 703.745 1764.54 716.707 1778.36C723.191 1785.26 727.795 1792.03 730.221 1798.22C732.644 1804.41 732.852 1809.91 730.769 1814.46Z" stroke="url(#paint69_linear_38_7)" stroke-opacity="0.5" stroke-width="3"/>
<path d="M830.081 1786.43C826.223 1794.86 818.315 1801.12 807.033 1805.11C795.745 1809.1 781.203 1810.77 764.353 1810.09C730.662 1808.72 688.059 1797.97 644.575 1778.09C601.09 1758.2 565.084 1733.02 542.01 1708.43C530.47 1696.14 522.219 1684.04 517.854 1672.9C513.49 1661.75 513.051 1651.68 516.908 1643.24C520.766 1634.8 528.674 1628.54 539.956 1624.55C551.244 1620.56 565.786 1618.89 582.636 1619.58C616.327 1620.94 658.93 1631.7 702.414 1651.58C745.899 1671.46 781.905 1696.65 804.979 1721.23C816.519 1733.53 824.77 1745.62 829.135 1756.77C833.499 1767.91 833.938 1777.99 830.081 1786.43Z" stroke="url(#paint70_linear_38_7)" stroke-opacity="0.5" stroke-width="3"/>
<circle cx="2329.94" cy="4064.73" r="177.884" transform="rotate(-41.8877 2329.94 4064.73)" fill="url(#paint71_radial_38_7)"/>
<circle cx="2329.94" cy="4064.73" r="177.884" transform="rotate(-41.8877 2329.94 4064.73)" fill="url(#paint72_linear_38_7)"/>
<circle cx="2329.94" cy="4064.73" r="225.933" transform="rotate(-41.8877 2329.94 4064.73)" fill="url(#paint73_linear_38_7)"/>
<circle cx="2329.94" cy="4064.73" r="225.933" transform="rotate(-41.8877 2329.94 4064.73)" fill="url(#paint74_radial_38_7)" fill-opacity="0.5"/>
<path d="M2528.93 4004.31C2532.36 4015.32 2530.23 4027.65 2523.14 4040.62C2516.06 4053.6 2504.07 4067.11 2488.06 4080.34C2456.04 4106.8 2408.14 4131.95 2351.95 4149.47C2295.77 4166.99 2242.06 4173.51 2200.67 4169.94C2179.98 4168.16 2162.44 4163.85 2149.23 4157.2C2136.03 4150.55 2127.27 4141.63 2123.83 4130.61C2120.4 4119.6 2122.54 4107.27 2129.62 4094.3C2136.71 4081.32 2148.69 4067.81 2164.7 4054.58C2196.73 4028.12 2244.62 4002.96 2300.81 3985.45C2357 3967.93 2410.71 3961.41 2452.09 3964.98C2472.79 3966.76 2490.32 3971.07 2503.53 3977.72C2516.73 3984.36 2525.5 3993.29 2528.93 4004.31Z" stroke="url(#paint75_linear_38_7)" stroke-opacity="0.5" stroke-width="3"/>
<path d="M2635.4 3949.09C2642.53 3966.57 2640.71 3986.88 2631.06 4008.78C2621.41 4030.68 2603.96 4054.05 2580.05 4077.48C2532.23 4124.33 2458.79 4171.22 2371.05 4206.97C2283.32 4242.72 2198.02 4260.51 2131.07 4260.41C2097.6 4260.37 2068.79 4255.85 2046.57 4246.93C2024.37 4238.01 2008.87 4224.75 2001.75 4207.27C1994.63 4189.79 1996.44 4169.48 2006.1 4147.58C2015.75 4125.68 2033.2 4102.31 2057.11 4078.88C2104.93 4032.03 2178.36 3985.14 2266.1 3949.39C2353.84 3913.64 2439.14 3895.86 2506.08 3895.95C2539.56 3896 2568.37 3900.52 2590.58 3909.43C2612.79 3918.35 2628.28 3931.61 2635.4 3949.09Z" fill="url(#paint76_radial_38_7)" stroke="url(#paint77_linear_38_7)" stroke-width="3"/>
<path d="M2473.14 3914.93C2475.97 3924 2474.22 3934.17 2468.35 3944.91C2462.48 3955.66 2452.55 3966.86 2439.26 3977.84C2412.68 3999.8 2372.91 4020.7 2326.24 4035.25C2279.57 4049.8 2234.97 4055.21 2200.63 4052.25C2183.45 4050.77 2168.91 4047.2 2157.97 4041.69C2147.04 4036.18 2139.82 4028.81 2136.99 4019.74C2134.17 4010.68 2135.92 4000.51 2141.78 3989.76C2147.65 3979.02 2157.58 3967.82 2170.88 3956.83C2197.45 3934.87 2237.22 3913.98 2283.89 3899.43C2330.56 3884.88 2375.16 3879.46 2409.51 3882.43C2426.69 3883.91 2441.22 3887.48 2452.16 3892.99C2463.09 3898.49 2470.31 3905.87 2473.14 3914.93Z" stroke="url(#paint78_linear_38_7)" stroke-opacity="0.5" stroke-width="3"/>
<path d="M2377.56 3871.62C2379.09 3876.52 2378.17 3882.08 2374.91 3888.05C2371.64 3894.02 2366.1 3900.29 2358.63 3906.46C2343.7 3918.8 2321.31 3930.56 2295.01 3938.76C2268.71 3946.96 2243.6 3950 2224.31 3948.34C2214.65 3947.51 2206.53 3945.5 2200.45 3942.44C2194.38 3939.38 2190.46 3935.33 2188.93 3930.43C2187.4 3925.53 2188.32 3919.98 2191.58 3914.01C2194.85 3908.03 2200.39 3901.77 2207.86 3895.6C2222.79 3883.26 2245.18 3871.49 2271.48 3863.29C2297.78 3855.09 2322.89 3852.05 2342.18 3853.71C2351.84 3854.55 2359.96 3856.55 2366.04 3859.61C2372.11 3862.67 2376.03 3866.72 2377.56 3871.62Z" stroke="url(#paint79_linear_38_7)" stroke-opacity="0.5" stroke-width="3"/>
<path d="M2464.16 4196.32C2465.68 4201.22 2464.76 4206.78 2461.5 4212.74C2458.24 4218.72 2452.69 4224.98 2445.22 4231.16C2430.29 4243.49 2407.91 4255.26 2381.61 4263.46C2355.3 4271.66 2330.2 4274.7 2310.9 4273.04C2301.25 4272.2 2293.12 4270.2 2287.04 4267.14C2280.97 4264.08 2277.05 4260.03 2275.52 4255.13C2274 4250.23 2274.92 4244.67 2278.18 4238.7C2281.44 4232.73 2286.98 4226.47 2294.45 4220.29C2309.39 4207.95 2331.77 4196.19 2358.07 4187.99C2384.37 4179.79 2409.48 4176.75 2428.78 4178.41C2438.43 4179.25 2446.56 4181.25 2452.64 4184.31C2458.71 4187.37 2462.63 4191.42 2464.16 4196.32Z" stroke="url(#paint80_linear_38_7)" stroke-opacity="0.5" stroke-width="3"/>
<path d="M2520.6 4107.19C2523.43 4116.26 2521.68 4126.43 2515.81 4137.17C2509.94 4147.92 2500.01 4159.12 2486.72 4170.1C2460.14 4192.06 2420.37 4212.96 2373.7 4227.51C2327.03 4242.06 2282.44 4247.47 2248.09 4244.51C2230.91 4243.02 2216.37 4239.45 2205.43 4233.95C2194.5 4228.44 2187.28 4221.07 2184.46 4212C2181.63 4202.93 2183.38 4192.76 2189.25 4182.02C2195.11 4171.27 2205.05 4160.07 2218.34 4149.09C2244.92 4127.13 2284.69 4106.24 2331.36 4091.69C2378.02 4077.13 2422.62 4071.72 2456.97 4074.69C2474.15 4076.17 2488.69 4079.74 2499.62 4085.25C2510.56 4090.75 2517.78 4098.13 2520.6 4107.19Z" stroke="url(#paint81_linear_38_7)" stroke-opacity="0.5" stroke-width="3"/>
<rect x="1272" y="3156.4" width="2096.81" height="185.964" rx="92.9821" transform="rotate(-30 1272 3156.4)" fill="url(#paint82_linear_38_7)" fill-opacity="0.5"/>
</g>
<defs>
<filter id="filter0_d_38_7" x="720.352" y="2647.42" width="54.2448" height="45.1558" filterUnits="userSpaceOnUse" color-interpolation-filters="sRGB">
<feFlood flood-opacity="0" result="BackgroundImageFix"/>
<feColorMatrix in="SourceAlpha" type="matrix" values="0 0 0 0 0 0 0 0 0 0 0 0 0 0 0 0 0 0 127 0" result="hardAlpha"/>
<feOffset/>
<feGaussianBlur stdDeviation="5"/>
<feComposite in2="hardAlpha" operator="out"/>
<feColorMatrix type="matrix" values="0 0 0 0 1 0 0 0 0 1 0 0 0 0 1 0 0 0 1 0"/>
<feBlend mode="normal" in2="BackgroundImageFix" result="effect1_dropShadow_38_7"/>
<feBlend mode="normal" in="SourceGraphic" in2="effect1_dropShadow_38_7" result="shape"/>
</filter>
<filter id="filter1_dd_38_7" x="982.727" y="3559.24" width="217.018" height="188.614" filterUnits="userSpaceOnUse" color-interpolation-filters="sRGB">
<feFlood flood-opacity="0" result="BackgroundImageFix"/>
<feColorMatrix in="SourceAlpha" type="matrix" values="0 0 0 0 0 0 0 0 0 0 0 0 0 0 0 0 0 0 127 0" result="hardAlpha"/>
<feOffset/>
<feGaussianBlur stdDeviation="27.5"/>
<feComposite in2="hardAlpha" operator="out"/>
<feColorMatrix type="matrix" values="0 0 0 0 1 0 0 0 0 1 0 0 0 0 1 0 0 0 1 0"/>
<feBlend mode="normal" in2="BackgroundImageFix" result="effect1_dropShadow_38_7"/>
<feColorMatrix in="SourceAlpha" type="matrix" values="0 0 0 0 0 0 0 0 0 0 0 0 0 0 0 0 0 0 127 0" result="hardAlpha"/>
<feOffset/>
<feGaussianBlur stdDeviation="2"/>
<feComposite in2="hardAlpha" operator="out"/>
<feColorMatrix type="matrix" values="0 0 0 0 1 0 0 0 0 1 0 0 0 0 1 0 0 0 1 0"/>
<feBlend mode="normal" in2="effect1_dropShadow_38_7" result="effect2_dropShadow_38_7"/>
<feBlend mode="normal" in="SourceGraphic" in2="effect2_dropShadow_38_7" result="shape"/>
</filter>
<filter id="filter2_d_38_7" x="720.352" y="826.417" width="54.2448" height="45.1558" filterUnits="userSpaceOnUse" color-interpolation-filters="sRGB">
<feFlood flood-opacity="0" result="BackgroundImageFix"/>
<feColorMatrix in="SourceAlpha" type="matrix" values="0 0 0 0 0 0 0 0 0 0 0 0 0 0 0 0 0 0 127 0" result="hardAlpha"/>
<feOffset/>
<feGaussianBlur stdDeviation="5"/>
<feComposite in2="hardAlpha" operator="out"/>
<feColorMatrix type="matrix" values="0 0 0 0 1 0 0 0 0 1 0 0 0 0 1 0 0 0 1 0"/>
<feBlend mode="normal" in2="BackgroundImageFix" result="effect1_dropShadow_38_7"/>
<feBlend mode="normal" in="SourceGraphic" in2="effect1_dropShadow_38_7" result="shape"/>
</filter>
<filter id="filter3_dd_38_7" x="1914.97" y="1123.39" width="204.117" height="179.137" filterUnits="userSpaceOnUse" color-interpolation-filters="sRGB">
<feFlood flood-opacity="0" result="BackgroundImageFix"/>
<feColorMatrix in="SourceAlpha" type="matrix" values="0 0 0 0 0 0 0 0 0 0 0 0 0 0 0 0 0 0 127 0" result="hardAlpha"/>
<feOffset/>
<feGaussianBlur stdDeviation="27.5"/>
<feComposite in2="hardAlpha" operator="out"/>
<feColorMatrix type="matrix" values="0 0 0 0 1 0 0 0 0 1 0 0 0 0 1 0 0 0 1 0"/>
<feBlend mode="normal" in2="BackgroundImageFix" result="effect1_dropShadow_38_7"/>
<feColorMatrix in="SourceAlpha" type="matrix" values="0 0 0 0 0 0 0 0 0 0 0 0 0 0 0 0 0 0 127 0" result="hardAlpha"/>
<feOffset/>
<feGaussianBlur stdDeviation="2"/>
<feComposite in2="hardAlpha" operator="out"/>
<feColorMatrix type="matrix" values="0 0 0 0 1 0 0 0 0 1 0 0 0 0 1 0 0 0 1 0"/>
<feBlend mode="normal" in2="effect1_dropShadow_38_7" result="effect2_dropShadow_38_7"/>
<feBlend mode="normal" in="SourceGraphic" in2="effect2_dropShadow_38_7" result="shape"/>
</filter>
<linearGradient id="paint0_linear_38_7" x1="2874.8" y1="4749.96" x2="2413.56" y2="5484.26" gradientUnits="userSpaceOnUse">
<stop offset="0.40625" stop-color="#FCFCFC" stop-opacity="0.7"/>
<stop offset="1" stop-color="#FF4DB8" stop-opacity="0"/>
</linearGradient>
<radialGradient id="paint1_radial_38_7" cx="0" cy="0" r="1" gradientUnits="userSpaceOnUse" gradientTransform="translate(1140.38 3377.49) rotate(89.8015) scale(323.508 787.801)">
<stop offset="0.161458" stop-color="#6100FF" stop-opacity="0"/>
<stop offset="0.870486" stop-color="#924FFF" stop-opacity="0.5"/>
<stop offset="1" stop-color="#C49FFF" stop-opacity="0"/>
</radialGradient>
<radialGradient id="paint2_radial_38_7" cx="0" cy="0" r="1" gradientUnits="userSpaceOnUse" gradientTransform="translate(1501.88 3204.49) rotate(89.8013) scale(323.508 788.8)">
<stop offset="0.161458" stop-color="#5200FF" stop-opacity="0"/>
<stop offset="0.870486" stop-color="#4FDFFF" stop-opacity="0.5"/>
<stop offset="1" stop-color="#9FD1FF" stop-opacity="0"/>
</radialGradient>
<radialGradient id="paint3_radial_38_7" cx="0" cy="0" r="1" gradientUnits="userSpaceOnUse" gradientTransform="translate(1330.47 3347.23) rotate(89.8016) scale(151.769 369.438)">
<stop offset="0.161458" stop-color="white" stop-opacity="0"/>
<stop offset="0.870486" stop-color="#D3D3D3" stop-opacity="0.5"/>
<stop offset="1" stop-color="#A2CDF4" stop-opacity="0"/>
</radialGradient>
<linearGradient id="paint4_linear_38_7" x1="1251.5" y1="3288.5" x2="1303" y2="3329" gradientUnits="userSpaceOnUse">
<stop stop-color="white"/>
<stop offset="1" stop-color="white" stop-opacity="0"/>
</linearGradient>
<linearGradient id="paint5_linear_38_7" x1="974.052" y1="3587.87" x2="969.479" y2="3536.97" gradientUnits="userSpaceOnUse">
<stop stop-color="white"/>
<stop offset="1" stop-color="white" stop-opacity="0"/>
</linearGradient>
<radialGradient id="paint6_radial_38_7" cx="0" cy="0" r="1" gradientUnits="userSpaceOnUse" gradientTransform="translate(775.479 2733.93) rotate(120) scale(75 264.623)">
<stop offset="0.140625" stop-color="#FF92D3" stop-opacity="0.7"/>
<stop offset="0.830568" stop-color="#438EFF" stop-opacity="0.5"/>
<stop offset="1" stop-color="#438EFF" stop-opacity="0"/>
</radialGradient>
<linearGradient id="paint7_linear_38_7" x1="785.023" y1="2735.4" x2="760.469" y2="2789.93" gradientUnits="userSpaceOnUse">
<stop stop-color="white"/>
<stop offset="1" stop-color="white" stop-opacity="0"/>
</linearGradient>
<radialGradient id="paint8_radial_38_7" cx="0" cy="0" r="1" gradientUnits="userSpaceOnUse" gradientTransform="translate(2169.11 2631.45) rotate(163.492) scale(242.025 537.277)">
<stop offset="0.140625" stop-color="#6100FF" stop-opacity="0.7"/>
<stop offset="0.830568" stop-color="#438EFF" stop-opacity="0.5"/>
<stop offset="1" stop-color="#438EFF" stop-opacity="0"/>
</radialGradient>
<linearGradient id="paint9_linear_38_7" x1="2228.17" y1="2633" x2="2222.85" y2="2702.04" gradientUnits="userSpaceOnUse">
<stop stop-color="white"/>
<stop offset="1" stop-color="white" stop-opacity="0"/>
</linearGradient>
<linearGradient id="paint10_linear_38_7" x1="1448.11" y1="4205.05" x2="1336.11" y2="4535.56" gradientUnits="userSpaceOnUse">
<stop stop-color="#FFA6DB" stop-opacity="0.7"/>
<stop offset="1" stop-color="#FF4DB8" stop-opacity="0"/>
</linearGradient>
<linearGradient id="paint11_linear_38_7" x1="1253.03" y1="4162.25" x2="1235.8" y2="4284.87" gradientUnits="userSpaceOnUse">
<stop stop-color="white"/>
<stop offset="1" stop-color="white" stop-opacity="0"/>
</linearGradient>
<linearGradient id="paint12_linear_38_7" x1="1664.52" y1="3301.67" x2="1551.51" y2="3467.52" gradientUnits="userSpaceOnUse">
<stop stop-color="#FFA6DB" stop-opacity="0.7"/>
<stop offset="1" stop-color="#FF4DB8" stop-opacity="0"/>
</linearGradient>
<linearGradient id="paint13_linear_38_7" x1="1600.57" y1="3273.46" x2="1579.01" y2="3349.78" gradientUnits="userSpaceOnUse">
<stop stop-color="white"/>
<stop offset="1" stop-color="white" stop-opacity="0"/>
</linearGradient>
<linearGradient id="paint14_linear_38_7" x1="1972.64" y1="2139.45" x2="1638.51" y2="2309.02" gradientUnits="userSpaceOnUse">
<stop stop-color="#44A5FF"/>
<stop offset="1" stop-color="#0029FF" stop-opacity="0"/>
</linearGradient>
<linearGradient id="paint15_linear_38_7" x1="2119.33" y1="2119.89" x2="1785.2" y2="2289.46" gradientUnits="userSpaceOnUse">
<stop stop-color="#44A5FF"/>
<stop offset="1" stop-color="#0029FF" stop-opacity="0"/>
</linearGradient>
<linearGradient id="paint16_linear_38_7" x1="2132.75" y1="3029.07" x2="2032.24" y2="3085.2" gradientUnits="userSpaceOnUse">
<stop stop-color="#E4ABFF"/>
<stop offset="1" stop-color="#0029FF" stop-opacity="0"/>
</linearGradient>
<radialGradient id="paint17_radial_38_7" cx="0" cy="0" r="1" gradientUnits="userSpaceOnUse" gradientTransform="translate(1811.62 3075.26) rotate(-17.9315) scale(139.737)">
<stop stop-color="#A6C52D"/>
<stop offset="0.53125" stop-color="#8EB388"/>
<stop offset="1" stop-color="#9F9F9F"/>
</radialGradient>
<radialGradient id="paint18_radial_38_7" cx="0" cy="0" r="1" gradientUnits="userSpaceOnUse" gradientTransform="translate(1914.91 3036.27) rotate(-110.752) scale(42.519)">
<stop stop-color="#FFCAF3"/>
<stop offset="0.0001" stop-color="#FF58EE" stop-opacity="0.51"/>
<stop offset="1" stop-color="#F181C4" stop-opacity="0.22"/>
</radialGradient>
<radialGradient id="paint19_radial_38_7" cx="0" cy="0" r="1" gradientUnits="userSpaceOnUse" gradientTransform="translate(1812.87 3013.59) rotate(45) scale(76.6571)">
<stop stop-color="white" stop-opacity="0.9"/>
<stop offset="0.625" stop-color="#C48AC6" stop-opacity="0.74"/>
<stop offset="1" stop-color="#FC59FF" stop-opacity="0"/>
</radialGradient>
<radialGradient id="paint20_radial_38_7" cx="0" cy="0" r="1" gradientUnits="userSpaceOnUse" gradientTransform="translate(1895.96 3094.36) rotate(-155.864) scale(57.355)">
<stop stop-color="#72DF60"/>
<stop offset="0.864583" stop-color="#61E3FF" stop-opacity="0.53"/>
<stop offset="1" stop-color="#93FF61" stop-opacity="0.41"/>
</radialGradient>
<linearGradient id="paint21_linear_38_7" x1="1867.1" y1="3014.38" x2="1861.6" y2="3067.21" gradientUnits="userSpaceOnUse">
<stop stop-color="white" stop-opacity="0"/>
<stop offset="1" stop-color="white"/>
</linearGradient>
<linearGradient id="paint22_linear_38_7" x1="1872.7" y1="2988.34" x2="1868.13" y2="3032.24" gradientUnits="userSpaceOnUse">
<stop stop-color="white" stop-opacity="0"/>
<stop offset="1" stop-color="white"/>
</linearGradient>
<linearGradient id="paint23_linear_38_7" x1="1873.57" y1="2976.76" x2="1870.99" y2="3001.56" gradientUnits="userSpaceOnUse">
<stop stop-color="white" stop-opacity="0"/>
<stop offset="1" stop-color="white"/>
</linearGradient>
<linearGradient id="paint24_linear_38_7" x1="1858.79" y1="3077.79" x2="1856.2" y2="3102.59" gradientUnits="userSpaceOnUse">
<stop stop-color="white" stop-opacity="0"/>
<stop offset="1" stop-color="white"/>
</linearGradient>
<linearGradient id="paint25_linear_38_7" x1="1862.88" y1="3047.7" x2="1858.31" y2="3091.61" gradientUnits="userSpaceOnUse">
<stop stop-color="white" stop-opacity="0"/>
<stop offset="1" stop-color="white"/>
</linearGradient>
<radialGradient id="paint26_radial_38_7" cx="0" cy="0" r="1" gradientUnits="userSpaceOnUse" gradientTransform="translate(2378.36 2410.36) rotate(-17.9315) scale(68.4429)">
<stop stop-color="#5B3265"/>
<stop offset="0.53125" stop-color="#B288B3"/>
<stop offset="1" stop-color="#9F9F9F"/>
</radialGradient>
<radialGradient id="paint27_radial_38_7" cx="0" cy="0" r="1" gradientUnits="userSpaceOnUse" gradientTransform="translate(2428.95 2391.27) rotate(-110.752) scale(20.8257)">
<stop stop-color="#FFCAF3"/>
<stop offset="0.0001" stop-color="#FF58EE" stop-opacity="0.51"/>
<stop offset="1" stop-color="#F181C4" stop-opacity="0.22"/>
</radialGradient>
<radialGradient id="paint28_radial_38_7" cx="0" cy="0" r="1" gradientUnits="userSpaceOnUse" gradientTransform="translate(2378.97 2380.16) rotate(45) scale(37.5465)">
<stop stop-color="white" stop-opacity="0.9"/>
<stop offset="0.625" stop-color="#C48AC6" stop-opacity="0.74"/>
<stop offset="1" stop-color="#FC59FF" stop-opacity="0"/>
</radialGradient>
<radialGradient id="paint29_radial_38_7" cx="0" cy="0" r="1" gradientUnits="userSpaceOnUse" gradientTransform="translate(2419.67 2419.72) rotate(-155.864) scale(28.0924)">
<stop stop-color="#DF60B4"/>
<stop offset="0.864583" stop-color="#DF61FF" stop-opacity="0.53"/>
<stop offset="1" stop-color="#CC61FF" stop-opacity="0.41"/>
</radialGradient>
<linearGradient id="paint30_linear_38_7" x1="2397.29" y1="2382.99" x2="2411.59" y2="2404.73" gradientUnits="userSpaceOnUse">
<stop stop-color="white" stop-opacity="0"/>
<stop offset="1" stop-color="white"/>
</linearGradient>
<linearGradient id="paint31_linear_38_7" x1="2391.34" y1="2371.38" x2="2403.22" y2="2389.44" gradientUnits="userSpaceOnUse">
<stop stop-color="white" stop-opacity="0"/>
<stop offset="1" stop-color="white"/>
</linearGradient>
<linearGradient id="paint32_linear_38_7" x1="2388.08" y1="2366.72" x2="2394.79" y2="2376.92" gradientUnits="userSpaceOnUse">
<stop stop-color="white" stop-opacity="0"/>
<stop offset="1" stop-color="white"/>
</linearGradient>
<linearGradient id="paint33_linear_38_7" x1="2413.8" y1="2409.61" x2="2420.51" y2="2419.82" gradientUnits="userSpaceOnUse">
<stop stop-color="white" stop-opacity="0"/>
<stop offset="1" stop-color="white"/>
</linearGradient>
<linearGradient id="paint34_linear_38_7" x1="2406.02" y1="2396.93" x2="2417.9" y2="2415" gradientUnits="userSpaceOnUse">
<stop stop-color="white" stop-opacity="0"/>
<stop offset="1" stop-color="white"/>
</linearGradient>
<linearGradient id="paint35_linear_38_7" x1="2753.14" y1="1743.28" x2="2646.21" y2="2121.1" gradientUnits="userSpaceOnUse">
<stop stop-color="#7F84F9" stop-opacity="0"/>
<stop offset="0.505208" stop-color="#4AD8E1" stop-opacity="0.24"/>
<stop offset="1" stop-color="#FF4DB8" stop-opacity="0"/>
</linearGradient>
<linearGradient id="paint36_linear_38_7" x1="2319.8" y1="1200.96" x2="1858.56" y2="1935.26" gradientUnits="userSpaceOnUse">
<stop offset="0.40625" stop-color="#0A0D5C" stop-opacity="0.7"/>
<stop offset="1" stop-color="#FF4DB8" stop-opacity="0"/>
</linearGradient>
<radialGradient id="paint37_radial_38_7" cx="0" cy="0" r="1" gradientUnits="userSpaceOnUse" gradientTransform="translate(2323.78 1194.32) rotate(89.8013) scale(207.684 506.23)">
<stop offset="0.161458" stop-color="#6100FF" stop-opacity="0"/>
<stop offset="0.870486" stop-color="#924FFF" stop-opacity="0.5"/>
<stop offset="1" stop-color="#C49FFF" stop-opacity="0"/>
</radialGradient>
<radialGradient id="paint38_radial_38_7" cx="0" cy="0" r="1" gradientUnits="userSpaceOnUse" gradientTransform="translate(2505.78 1104.32) rotate(89.8013) scale(207.684 506.23)">
<stop offset="0.161458" stop-color="#5200FF" stop-opacity="0"/>
<stop offset="0.870486" stop-color="#4FDFFF" stop-opacity="0.5"/>
<stop offset="1" stop-color="#9FD1FF" stop-opacity="0"/>
</radialGradient>
<radialGradient id="paint39_radial_38_7" cx="0" cy="0" r="1" gradientUnits="userSpaceOnUse" gradientTransform="translate(775.479 912.934) rotate(120) scale(75 264.623)">
<stop offset="0.140625" stop-color="#FF92D3" stop-opacity="0.7"/>
<stop offset="0.830568" stop-color="#438EFF" stop-opacity="0.5"/>
<stop offset="1" stop-color="#438EFF" stop-opacity="0"/>
</radialGradient>
<linearGradient id="paint40_linear_38_7" x1="785.023" y1="914.403" x2="760.469" y2="968.932" gradientUnits="userSpaceOnUse">
<stop stop-color="white"/>
<stop offset="1" stop-color="white" stop-opacity="0"/>
</linearGradient>
<radialGradient id="paint41_radial_38_7" cx="0" cy="0" r="1" gradientUnits="userSpaceOnUse" gradientTransform="translate(2263.83 515.679) rotate(163.492) scale(74.246 164.82)">
<stop offset="0.140625" stop-color="#0085FF" stop-opacity="0.7"/>
<stop offset="0.830568" stop-color="#438EFF" stop-opacity="0.5"/>
<stop offset="1" stop-color="#438EFF" stop-opacity="0"/>
</radialGradient>
<linearGradient id="paint42_linear_38_7" x1="2281.95" y1="516.156" x2="2280.32" y2="537.333" gradientUnits="userSpaceOnUse">
<stop stop-color="white"/>
<stop offset="1" stop-color="white" stop-opacity="0"/>
</linearGradient>
<linearGradient id="paint43_linear_38_7" x1="2330.88" y1="1697.97" x2="2232.38" y2="1988.64" gradientUnits="userSpaceOnUse">
<stop stop-color="#FFA6DB" stop-opacity="0.7"/>
<stop offset="1" stop-color="#FF4DB8" stop-opacity="0"/>
</linearGradient>
<linearGradient id="paint44_linear_38_7" x1="2159.32" y1="1660.33" x2="2144.17" y2="1768.17" gradientUnits="userSpaceOnUse">
<stop stop-color="white"/>
<stop offset="1" stop-color="white" stop-opacity="0"/>
</linearGradient>
<linearGradient id="paint45_linear_38_7" x1="2067.88" y1="1385.26" x2="1954.87" y2="1551.11" gradientUnits="userSpaceOnUse">
<stop stop-color="#FFA6DB" stop-opacity="0.7"/>
<stop offset="1" stop-color="#FF4DB8" stop-opacity="0"/>
</linearGradient>
<linearGradient id="paint46_linear_38_7" x1="2003.93" y1="1357.05" x2="1982.37" y2="1433.37" gradientUnits="userSpaceOnUse">
<stop stop-color="white"/>
<stop offset="1" stop-color="white" stop-opacity="0"/>
</linearGradient>
<linearGradient id="paint47_linear_38_7" x1="2203.75" y1="365.067" x2="2103.24" y2="421.202" gradientUnits="userSpaceOnUse">
<stop stop-color="#44A5FF"/>
<stop offset="1" stop-color="#0029FF" stop-opacity="0"/>
</linearGradient>
<linearGradient id="paint48_linear_38_7" x1="2248.75" y1="359.067" x2="2148.24" y2="415.202" gradientUnits="userSpaceOnUse">
<stop stop-color="#44A5FF"/>
<stop offset="1" stop-color="#0029FF" stop-opacity="0"/>
</linearGradient>
<linearGradient id="paint49_linear_38_7" x1="2132.75" y1="1208.07" x2="2032.24" y2="1264.2" gradientUnits="userSpaceOnUse">
<stop stop-color="#E4ABFF"/>
<stop offset="1" stop-color="#0029FF" stop-opacity="0"/>
</linearGradient>
<radialGradient id="paint50_radial_38_7" cx="0" cy="0" r="1" gradientUnits="userSpaceOnUse" gradientTransform="translate(2207.42 578.044) rotate(-17.9315) scale(193.798)">
<stop stop-color="#9D2DC5"/>
<stop offset="0.53125" stop-color="#EB9DFF"/>
<stop offset="1" stop-color="white"/>
</radialGradient>
<radialGradient id="paint51_radial_38_7" cx="0" cy="0" r="1" gradientUnits="userSpaceOnUse" gradientTransform="translate(2350.66 523.978) rotate(-110.752) scale(58.9688)">
<stop stop-color="#FFCAF3"/>
<stop offset="0.0001" stop-color="#FF58EE" stop-opacity="0.51"/>
<stop offset="1" stop-color="#F181C4" stop-opacity="0.22"/>
</radialGradient>
<radialGradient id="paint52_radial_38_7" cx="0" cy="0" r="1" gradientUnits="userSpaceOnUse" gradientTransform="translate(2209.14 492.526) rotate(45) scale(106.314)">
<stop stop-color="white" stop-opacity="0.9"/>
<stop offset="0.625" stop-color="#C48AC6" stop-opacity="0.74"/>
<stop offset="1" stop-color="#FC59FF" stop-opacity="0"/>
</radialGradient>
<radialGradient id="paint53_radial_38_7" cx="0" cy="0" r="1" gradientUnits="userSpaceOnUse" gradientTransform="translate(2324.38 604.536) rotate(-155.864) scale(79.5445)">
<stop offset="0.0416667" stop-color="#FFF9FF"/>
<stop offset="0.864583" stop-color="#FC61FF" stop-opacity="0.53"/>
<stop offset="1" stop-color="#FC61FF" stop-opacity="0.41"/>
</radialGradient>
<linearGradient id="paint54_linear_38_7" x1="2295.81" y1="496.149" x2="2265.18" y2="563.146" gradientUnits="userSpaceOnUse">
<stop stop-color="white" stop-opacity="0"/>
<stop offset="1" stop-color="white"/>
</linearGradient>
<linearGradient id="paint55_linear_38_7" x1="2314.7" y1="464.404" x2="2289.25" y2="520.078" gradientUnits="userSpaceOnUse">
<stop stop-color="white" stop-opacity="0"/>
<stop offset="1" stop-color="white"/>
</linearGradient>
<linearGradient id="paint56_linear_38_7" x1="2320.97" y1="449.573" x2="2306.6" y2="481.022" gradientUnits="userSpaceOnUse">
<stop stop-color="white" stop-opacity="0"/>
<stop offset="1" stop-color="white"/>
</linearGradient>
<linearGradient id="paint57_linear_38_7" x1="2256.78" y1="575.801" x2="2242.41" y2="607.249" gradientUnits="userSpaceOnUse">
<stop stop-color="white" stop-opacity="0"/>
<stop offset="1" stop-color="white"/>
</linearGradient>
<linearGradient id="paint58_linear_38_7" x1="2275.5" y1="538.07" x2="2250.05" y2="593.744" gradientUnits="userSpaceOnUse">
<stop stop-color="white" stop-opacity="0"/>
<stop offset="1" stop-color="white"/>
</linearGradient>
<linearGradient id="paint59_linear_38_7" x1="1931.83" y1="2663.71" x2="1420.04" y2="3190.75" gradientUnits="userSpaceOnUse">
<stop offset="0.40625" stop-color="#B9BAE6" stop-opacity="0.7"/>
<stop offset="1" stop-color="#FF4DB8" stop-opacity="0"/>
</linearGradient>
<radialGradient id="paint60_radial_38_7" cx="0" cy="0" r="1" gradientUnits="userSpaceOnUse" gradientTransform="translate(545.001 1743) rotate(-17.9315) scale(449.851)">
<stop offset="0.25" stop-color="#1E3C43"/>
<stop offset="0.485359" stop-color="#3DB9E0"/>
<stop offset="1" stop-color="white"/>
</radialGradient>
<radialGradient id="paint61_radial_38_7" cx="0" cy="0" r="1" gradientUnits="userSpaceOnUse" gradientTransform="translate(877.499 1617.5) rotate(-110.752) scale(136.88)">
<stop offset="0.114583" stop-color="#FFCAF3"/>
<stop offset="0.567708" stop-color="#ADBFFF"/>
<stop offset="1" stop-color="#25E0E0" stop-opacity="0"/>
</radialGradient>
<radialGradient id="paint62_radial_38_7" cx="0" cy="0" r="1" gradientUnits="userSpaceOnUse" gradientTransform="translate(549.001 1544.5) rotate(45) scale(246.78)">
<stop stop-color="white"/>
<stop offset="0.520833" stop-color="#59EBFF"/>
<stop offset="1" stop-color="#D9D9D9" stop-opacity="0"/>
</radialGradient>
<radialGradient id="paint63_radial_38_7" cx="0" cy="0" r="1" gradientUnits="userSpaceOnUse" gradientTransform="translate(816.499 1804.5) rotate(-155.864) scale(184.642)">
<stop offset="0.364583" stop-color="#FFF9FF"/>
<stop offset="0.666667" stop-color="#E774EA"/>
<stop offset="1" stop-color="#FC61FF" stop-opacity="0"/>
</radialGradient>
<linearGradient id="paint64_linear_38_7" x1="750.18" y1="1552.9" x2="679.076" y2="1708.42" gradientUnits="userSpaceOnUse">
<stop stop-color="white" stop-opacity="0"/>
<stop offset="1" stop-color="white"/>
</linearGradient>
<radialGradient id="paint65_radial_38_7" cx="0" cy="0" r="1" gradientUnits="userSpaceOnUse" gradientTransform="translate(733 1572) rotate(168.85) scale(315.454 156.706)">
<stop offset="0.770833" stop-color="#FD84F1" stop-opacity="0"/>
<stop offset="1" stop-color="#FF73F1" stop-opacity="0.22"/>
</radialGradient>
<linearGradient id="paint66_linear_38_7" x1="737.5" y1="1572" x2="733" y2="1660.5" gradientUnits="userSpaceOnUse">
<stop offset="0.390625" stop-color="white" stop-opacity="0"/>
<stop offset="0.765625" stop-color="#FFF4E3" stop-opacity="0.76"/>
</linearGradient>
<linearGradient id="paint67_linear_38_7" x1="794.038" y1="1479.22" x2="734.951" y2="1608.45" gradientUnits="userSpaceOnUse">
<stop stop-color="white" stop-opacity="0"/>
<stop offset="1" stop-color="white"/>
</linearGradient>
<linearGradient id="paint68_linear_38_7" x1="808.6" y1="1444.79" x2="775.224" y2="1517.79" gradientUnits="userSpaceOnUse">
<stop stop-color="white" stop-opacity="0"/>
<stop offset="1" stop-color="white"/>
</linearGradient>
<linearGradient id="paint69_linear_38_7" x1="659.6" y1="1737.79" x2="626.224" y2="1810.79" gradientUnits="userSpaceOnUse">
<stop stop-color="white" stop-opacity="0"/>
<stop offset="1" stop-color="white"/>
</linearGradient>
<linearGradient id="paint70_linear_38_7" x1="703.038" y1="1650.22" x2="643.951" y2="1779.45" gradientUnits="userSpaceOnUse">
<stop stop-color="white" stop-opacity="0"/>
<stop offset="1" stop-color="white"/>
</linearGradient>
<radialGradient id="paint71_radial_38_7" cx="0" cy="0" r="1" gradientUnits="userSpaceOnUse" gradientTransform="translate(2152.06 4179.23) rotate(-17.9315) scale(459.893)">
<stop offset="0.25" stop-color="#431E1E"/>
<stop offset="0.485359" stop-color="#673DE0"/>
<stop offset="1" stop-color="white"/>
</radialGradient>
<linearGradient id="paint72_linear_38_7" x1="2541.56" y1="4181.79" x2="2442.39" y2="3920.07" gradientUnits="userSpaceOnUse">
<stop offset="0.114683" stop-color="#ADBFFF"/>
<stop offset="0.21875" stop-color="#DCB5C7"/>
<stop offset="1" stop-color="#25E0E0" stop-opacity="0"/>
</linearGradient>
<linearGradient id="paint73_linear_38_7" x1="1977.75" y1="3797.91" x2="2334.54" y2="4154.7" gradientUnits="userSpaceOnUse">
<stop stop-color="white"/>
<stop offset="0.520833" stop-color="#1AB9CF" stop-opacity="0.29"/>
<stop offset="1" stop-color="#D9D9D9" stop-opacity="0"/>
</linearGradient>
<radialGradient id="paint74_radial_38_7" cx="0" cy="0" r="1" gradientUnits="userSpaceOnUse" gradientTransform="translate(2429.62 4242.1) rotate(-155.864) scale(188.763)">
<stop stop-color="#FFF9FF"/>
<stop offset="0.380208" stop-color="#E774EA" stop-opacity="0.55"/>
<stop offset="1" stop-color="#FC61FF" stop-opacity="0"/>
</radialGradient>
<linearGradient id="paint75_linear_38_7" x1="2300.36" y1="3984.01" x2="2352.4" y2="4150.91" gradientUnits="userSpaceOnUse">
<stop stop-color="white" stop-opacity="0"/>
<stop offset="1" stop-color="white"/>
</linearGradient>
<radialGradient id="paint76_radial_38_7" cx="0" cy="0" r="1" gradientUnits="userSpaceOnUse" gradientTransform="translate(2330.7 4008.92) rotate(151.939) scale(322.496 160.203)">
<stop offset="0.5" stop-color="#ECFD84" stop-opacity="0"/>
<stop offset="1" stop-color="#FFE973" stop-opacity="0.22"/>
</radialGradient>
<linearGradient id="paint77_linear_38_7" x1="2335.11" y1="4007.58" x2="2357.02" y2="4095.48" gradientUnits="userSpaceOnUse">
<stop offset="0.390625" stop-color="#CC3737" stop-opacity="0"/>
<stop offset="0.765625" stop-color="#A6EFC3" stop-opacity="0.76"/>
</linearGradient>
<linearGradient id="paint78_linear_38_7" x1="2283.45" y1="3898" x2="2326.69" y2="4036.68" gradientUnits="userSpaceOnUse">
<stop stop-color="white" stop-opacity="0"/>
<stop offset="1" stop-color="white"/>
</linearGradient>
<linearGradient id="paint79_linear_38_7" x1="2271.03" y1="3861.86" x2="2295.46" y2="3940.2" gradientUnits="userSpaceOnUse">
<stop stop-color="white" stop-opacity="0"/>
<stop offset="1" stop-color="white"/>
</linearGradient>
<linearGradient id="paint80_linear_38_7" x1="2357.63" y1="4186.55" x2="2382.05" y2="4264.89" gradientUnits="userSpaceOnUse">
<stop stop-color="white" stop-opacity="0"/>
<stop offset="1" stop-color="white"/>
</linearGradient>
<linearGradient id="paint81_linear_38_7" x1="2330.91" y1="4090.25" x2="2374.15" y2="4228.94" gradientUnits="userSpaceOnUse">
<stop stop-color="white" stop-opacity="0"/>
<stop offset="1" stop-color="white"/>
</linearGradient>
<linearGradient id="paint82_linear_38_7" x1="4112.73" y1="3147.12" x2="3896.93" y2="3841.48" gradientUnits="userSpaceOnUse">
<stop stop-color="#333576" stop-opacity="0"/>
<stop offset="0.0001" stop-color="#333576" stop-opacity="0"/>
<stop offset="0.505208" stop-color="#A9A431" stop-opacity="0.24"/>
<stop offset="1" stop-color="#FF4DB8" stop-opacity="0"/>
</linearGradient>
</defs>
</svg>
