<svg width="244" height="616" viewBox="0 0 244 616" fill="none" xmlns="http://www.w3.org/2000/svg">
<g filter="url(#filter0_d_18_258)">
<ellipse cx="113.613" cy="308.239" rx="260.239" ry="81.6133" transform="rotate(90 113.613 308.239)" fill="url(#paint0_radial_18_258)" shape-rendering="crispEdges"/>
<path d="M113.613 567.977C102.577 567.977 91.9722 560.844 82.2474 547.729C72.5296 534.622 63.7571 515.625 56.3811 492.105C41.631 445.072 32.5 380.065 32.5 308.239C32.5 236.412 41.631 171.405 56.3811 124.372C63.7571 100.852 72.5296 81.855 82.2474 68.7486C91.9723 55.6328 102.577 48.5 113.613 48.5C124.649 48.5 135.254 55.6328 144.979 68.7486C154.697 81.855 163.47 100.852 170.846 124.372C185.596 171.405 194.727 236.412 194.727 308.239C194.727 380.065 185.596 445.072 170.846 492.105C163.47 515.625 154.697 534.622 144.979 547.729C135.254 560.844 124.649 567.977 113.613 567.977Z" stroke="url(#paint1_linear_18_258)" shape-rendering="crispEdges"/>
</g>
<path d="M141.776 567.977C131.463 567.977 121.534 560.863 112.417 547.741C103.31 534.634 95.0886 515.636 88.176 492.114C74.3526 445.078 65.7957 380.068 65.7957 308.239C65.7957 236.41 74.3526 171.4 88.176 124.363C95.0886 100.842 103.31 81.843 112.417 68.7361C121.534 55.6145 131.464 48.5 141.776 48.5C152.089 48.5 162.018 55.6145 171.135 68.7361C180.242 81.843 188.464 100.842 195.376 124.363C209.2 171.4 217.756 236.41 217.756 308.239C217.756 380.068 209.199 445.078 195.376 492.114C188.463 515.636 180.242 534.634 171.135 547.741C162.018 560.863 152.089 567.977 141.776 567.977Z" fill="url(#paint2_radial_18_258)" stroke="url(#paint3_linear_18_258)"/>
<path d="M174.277 561.818C165.047 561.818 156.13 554.901 147.925 542.082C139.735 529.285 132.341 510.736 126.124 487.769C113.691 441.843 105.996 378.37 105.996 308.239C105.996 238.108 113.691 174.634 126.124 128.708C132.341 105.742 139.735 87.1923 147.925 74.396C156.13 61.5765 165.047 54.6597 174.277 54.6597C183.507 54.6597 192.424 61.5765 200.628 74.396C208.818 87.1923 216.212 105.742 222.43 128.708C234.862 174.634 242.558 238.108 242.558 308.239C242.558 378.37 234.862 441.843 222.43 487.769C216.212 510.736 208.818 529.285 200.628 542.082C192.424 554.901 183.507 561.818 174.277 561.818Z" fill="url(#paint4_radial_18_258)" stroke="url(#paint5_linear_18_258)"/>
<defs>
<filter id="filter0_d_18_258" x="3.05176e-05" y="26" width="227.227" height="584.477" filterUnits="userSpaceOnUse" color-interpolation-filters="sRGB">
<feFlood flood-opacity="0" result="BackgroundImageFix"/>
<feColorMatrix in="SourceAlpha" type="matrix" values="0 0 0 0 0 0 0 0 0 0 0 0 0 0 0 0 0 0 127 0" result="hardAlpha"/>
<feMorphology radius="19" operator="erode" in="SourceAlpha" result="effect1_dropShadow_18_258"/>
<feOffset dy="10"/>
<feGaussianBlur stdDeviation="25.5"/>
<feComposite in2="hardAlpha" operator="out"/>
<feColorMatrix type="matrix" values="0 0 0 0 1 0 0 0 0 1 0 0 0 0 1 0 0 0 1 0"/>
<feBlend mode="normal" in2="BackgroundImageFix" result="effect1_dropShadow_18_258"/>
<feBlend mode="normal" in="SourceGraphic" in2="effect1_dropShadow_18_258" result="shape"/>
</filter>
<radialGradient id="paint0_radial_18_258" cx="0" cy="0" r="1" gradientUnits="userSpaceOnUse" gradientTransform="translate(112.874 226.874) rotate(89.7401) scale(162.979 519.684)">
<stop offset="0.161458" stop-color="#683CAE" stop-opacity="0"/>
<stop offset="0.870486" stop-color="#C558D7" stop-opacity="0.26"/>
</radialGradient>
<linearGradient id="paint1_linear_18_258" x1="195.227" y1="308.239" x2="32" y2="308.239" gradientUnits="userSpaceOnUse">
<stop offset="0.270833" stop-color="#6100FF" stop-opacity="0"/>
<stop offset="0.5" stop-color="white"/>
<stop offset="0.640625" stop-color="#7D58AB"/>
</linearGradient>
<radialGradient id="paint2_radial_18_258" cx="0" cy="0" r="1" gradientUnits="userSpaceOnUse" gradientTransform="translate(218.023 307.499) rotate(179.723) scale(152.729 519.683)">
<stop offset="0.161458" stop-color="#683CAE" stop-opacity="0"/>
<stop offset="0.870486" stop-color="#C558D7" stop-opacity="0.26"/>
</radialGradient>
<linearGradient id="paint3_linear_18_258" x1="218.256" y1="308.239" x2="65.2957" y2="308.239" gradientUnits="userSpaceOnUse">
<stop offset="0.270833" stop-color="#6100FF" stop-opacity="0"/>
<stop offset="0.5" stop-color="white"/>
<stop offset="0.640625" stop-color="#7D58AB"/>
</linearGradient>
<radialGradient id="paint4_radial_18_258" cx="0" cy="0" r="1" gradientUnits="userSpaceOnUse" gradientTransform="translate(242.848 307.517) rotate(179.699) scale(137.354 507.382)">
<stop offset="0.161458" stop-color="#683CAE" stop-opacity="0"/>
<stop offset="0.870486" stop-color="#C558D7" stop-opacity="0.26"/>
</radialGradient>
<linearGradient id="paint5_linear_18_258" x1="243.058" y1="308.239" x2="105.496" y2="308.239" gradientUnits="userSpaceOnUse">
<stop offset="0.270833" stop-color="#6100FF" stop-opacity="0"/>
<stop offset="0.5" stop-color="white"/>
<stop offset="0.640625" stop-color="#7D58AB"/>
</linearGradient>
</defs>
</svg>
