<svg width="1378" height="760" viewBox="0 0 1378 760" fill="none" xmlns="http://www.w3.org/2000/svg">
<g filter="url(#filter0_d_14_21)">
<ellipse cx="689.5" cy="545.5" rx="525.5" ry="164.802" fill="url(#paint0_radial_14_21)" shape-rendering="crispEdges"/>
<path d="M1214.5 545.5C1214.5 568.022 1199.94 589.569 1173.41 609.247C1146.88 628.917 1108.46 646.652 1060.93 661.555C965.899 691.36 834.576 709.802 689.5 709.802C544.423 709.802 413.101 691.36 318.065 661.555C270.544 646.652 232.123 628.917 205.594 609.247C179.055 589.569 164.5 568.022 164.5 545.5C164.5 522.978 179.055 501.431 205.594 481.753C232.123 462.083 270.544 444.348 318.065 429.445C413.101 399.64 544.423 381.198 689.5 381.198C834.576 381.198 965.899 399.64 1060.93 429.445C1108.46 444.348 1146.88 462.083 1173.41 481.753C1199.94 501.431 1214.5 522.978 1214.5 545.5Z" stroke="url(#paint1_linear_14_21)" shape-rendering="crispEdges"/>
</g>
<path d="M1214.5 535.135C1214.5 556.211 1199.96 576.395 1173.42 594.838C1146.89 613.272 1108.47 629.892 1060.94 643.859C965.904 671.789 834.579 689.072 689.5 689.072C544.421 689.072 413.096 671.789 318.056 643.859C270.533 629.892 232.112 613.272 205.582 594.838C179.037 576.395 164.5 556.211 164.5 535.135C164.5 514.059 179.037 493.876 205.582 475.432C232.112 456.998 270.533 440.378 318.056 426.411C413.096 398.481 544.421 381.198 689.5 381.198C834.579 381.198 965.904 398.481 1060.94 426.411C1108.47 440.378 1146.89 456.998 1173.42 475.432C1199.96 493.876 1214.5 514.059 1214.5 535.135Z" fill="url(#paint2_radial_14_21)" stroke="url(#paint3_linear_14_21)"/>
<path d="M1202.06 519.588C1202.06 538.498 1187.9 556.636 1161.97 573.229C1136.07 589.806 1098.56 604.754 1052.16 617.315C959.367 642.434 831.147 657.977 689.5 657.977C547.853 657.977 419.633 642.434 326.841 617.315C280.441 604.754 242.928 589.806 217.026 573.229C191.102 556.636 176.938 538.498 176.938 519.588C176.938 500.678 191.102 482.539 217.026 465.947C242.928 449.369 280.441 434.421 326.841 421.861C419.633 396.741 547.853 381.198 689.5 381.198C831.147 381.198 959.367 396.741 1052.16 421.861C1098.56 434.421 1136.07 449.369 1161.97 465.947C1187.9 482.539 1202.06 500.678 1202.06 519.588Z" fill="url(#paint4_radial_14_21)" stroke="url(#paint5_linear_14_21)"/>
<circle cx="689" cy="280" r="280" fill="url(#paint6_radial_14_21)"/>
<g filter="url(#filter1_dd_14_21)">
<mask id="mask0_14_21" style="mask-type:alpha" maskUnits="userSpaceOnUse" x="290" y="190" width="205" height="357">
<path d="M404.663 541.963C399.163 547.481 390.239 547.504 384.731 542.014L294.248 451.832C290.38 447.977 289.094 442.231 290.946 437.086L376.204 200.291C380.648 187.949 398.049 187.8 402.659 200.065L493.337 441.304C495.28 446.473 494.021 452.307 490.116 456.224L404.663 541.963Z" fill="#00D1FF"/>
</mask>
<g mask="url(#mask0_14_21)">
<path d="M404.663 541.963C399.163 547.481 390.239 547.504 384.731 542.014L294.248 451.832C290.38 447.977 289.094 442.231 290.946 437.086L376.204 200.291C380.648 187.949 398.049 187.8 402.659 200.065L493.337 441.304C495.28 446.473 494.021 452.307 490.116 456.224L404.663 541.963Z" fill="#9C27C5" fill-opacity="0.85"/>
<path d="M439.737 386.818L506.091 445.155L411.331 540.232L439.737 386.818Z" fill="#D9D9D9" fill-opacity="0.85"/>
<path d="M372.354 154.843L474.392 243.366L253.601 535.03L372.354 154.843Z" fill="#DC3CB9" fill-opacity="0.6"/>
<path d="M356.22 402.719L486.334 416.931L284.596 596.422L356.22 402.719Z" fill="#DEB19D" fill-opacity="0.85"/>
<path d="M286.39 464.85L331.505 574.149L420.367 261.543L286.39 464.85Z" fill="#833EDB" fill-opacity="0.85"/>
</g>
</g>
<path d="M625.399 478.069C625.399 478.999 624.89 480.558 622.43 482.722C619.993 484.867 616.135 487.146 610.745 489.441C599.999 494.015 584.174 498.237 564.28 501.82C524.565 508.971 469.515 513.421 408.584 513.421C347.652 513.421 292.603 508.971 252.887 501.82C232.993 498.237 217.168 494.015 206.423 489.441C201.032 487.146 197.175 484.867 194.737 482.722C192.277 480.558 191.768 478.999 191.768 478.069C191.768 477.138 192.277 475.58 194.737 473.415C197.175 471.27 201.032 468.992 206.423 466.697C217.168 462.122 232.993 457.9 252.887 454.318C292.603 447.166 347.652 442.716 408.584 442.716C469.515 442.716 524.565 447.166 564.28 454.318C584.174 457.9 599.999 462.122 610.745 466.697C616.135 468.992 619.993 471.27 622.43 473.415C624.89 475.58 625.399 477.138 625.399 478.069Z" stroke="url(#paint7_linear_14_21)" stroke-width="9"/>
<path d="M799.935 582.954C799.744 583.67 798.447 585.552 792.485 587.191C786.93 588.718 778.8 589.606 768.164 589.76C746.965 590.067 716.885 587.454 680.006 582.165C606.309 571.596 506.122 550.44 396.947 521.186C287.771 491.933 190.429 460.161 121.321 432.466C86.738 418.607 59.3819 405.83 41.1763 394.964C32.0427 389.513 25.4459 384.679 21.3984 380.578C17.055 376.178 16.8728 373.9 17.0647 373.184C17.2565 372.468 18.5532 370.586 24.5149 368.947C30.0705 367.42 38.2005 366.532 48.8361 366.378C70.0353 366.071 100.115 368.684 136.994 373.973C210.691 384.542 310.878 405.698 420.053 434.952C529.229 464.205 626.571 495.977 695.679 523.672C730.262 537.531 757.618 550.308 775.824 561.174C784.957 566.625 791.554 571.459 795.602 575.559C799.945 579.96 800.127 582.238 799.935 582.954Z" stroke="url(#paint8_linear_14_21)" stroke-width="9"/>
<defs>
<filter id="filter0_d_14_21" x="140" y="380.698" width="1099" height="378.604" filterUnits="userSpaceOnUse" color-interpolation-filters="sRGB">
<feFlood flood-opacity="0" result="BackgroundImageFix"/>
<feColorMatrix in="SourceAlpha" type="matrix" values="0 0 0 0 0 0 0 0 0 0 0 0 0 0 0 0 0 0 127 0" result="hardAlpha"/>
<feMorphology radius="25" operator="erode" in="SourceAlpha" result="effect1_dropShadow_14_21"/>
<feOffset dy="25"/>
<feGaussianBlur stdDeviation="24.5"/>
<feComposite in2="hardAlpha" operator="out"/>
<feColorMatrix type="matrix" values="0 0 0 0 1 0 0 0 0 1 0 0 0 0 1 0 0 0 1 0"/>
<feBlend mode="normal" in2="BackgroundImageFix" result="effect1_dropShadow_14_21"/>
<feBlend mode="normal" in="SourceGraphic" in2="effect1_dropShadow_14_21" result="shape"/>
</filter>
<filter id="filter1_dd_14_21" x="235.111" y="135.95" width="314.126" height="465.167" filterUnits="userSpaceOnUse" color-interpolation-filters="sRGB">
<feFlood flood-opacity="0" result="BackgroundImageFix"/>
<feColorMatrix in="SourceAlpha" type="matrix" values="0 0 0 0 0 0 0 0 0 0 0 0 0 0 0 0 0 0 127 0" result="hardAlpha"/>
<feOffset/>
<feGaussianBlur stdDeviation="27.5"/>
<feComposite in2="hardAlpha" operator="out"/>
<feColorMatrix type="matrix" values="0 0 0 0 1 0 0 0 0 1 0 0 0 0 1 0 0 0 0.6 0"/>
<feBlend mode="normal" in2="BackgroundImageFix" result="effect1_dropShadow_14_21"/>
<feColorMatrix in="SourceAlpha" type="matrix" values="0 0 0 0 0 0 0 0 0 0 0 0 0 0 0 0 0 0 127 0" result="hardAlpha"/>
<feOffset/>
<feGaussianBlur stdDeviation="2"/>
<feComposite in2="hardAlpha" operator="out"/>
<feColorMatrix type="matrix" values="0 0 0 0 1 0 0 0 0 1 0 0 0 0 1 0 0 0 0.6 0"/>
<feBlend mode="normal" in2="effect1_dropShadow_14_21" result="effect2_dropShadow_14_21"/>
<feBlend mode="normal" in="SourceGraphic" in2="effect2_dropShadow_14_21" result="shape"/>
</filter>
<radialGradient id="paint0_radial_14_21" cx="0" cy="0" r="1" gradientUnits="userSpaceOnUse" gradientTransform="translate(688.007 381.201) rotate(89.7401) scale(329.104 1049.4)">
<stop offset="0.161458" stop-color="#683CAE" stop-opacity="0"/>
<stop offset="0.870486" stop-color="#58B8D7" stop-opacity="0.26"/>
</radialGradient>
<linearGradient id="paint1_linear_14_21" x1="689.5" y1="380.698" x2="689.5" y2="710.302" gradientUnits="userSpaceOnUse">
<stop offset="0.151042" stop-color="#6100FF" stop-opacity="0"/>
<stop offset="0.5" stop-color="white"/>
<stop offset="0.927083" stop-color="#DF61DA"/>
</linearGradient>
<radialGradient id="paint2_radial_14_21" cx="0" cy="0" r="1" gradientUnits="userSpaceOnUse" gradientTransform="translate(688.007 381.169) rotate(89.7227) scale(308.406 1049.4)">
<stop offset="0.161458" stop-color="#683CAE" stop-opacity="0"/>
<stop offset="0.870486" stop-color="#58B8D7" stop-opacity="0.26"/>
</radialGradient>
<linearGradient id="paint3_linear_14_21" x1="689.5" y1="380.698" x2="689.5" y2="689.572" gradientUnits="userSpaceOnUse">
<stop offset="0.151042" stop-color="#6100FF" stop-opacity="0"/>
<stop offset="0.5" stop-color="white"/>
<stop offset="0.927083" stop-color="#DF61DA"/>
</linearGradient>
<radialGradient id="paint4_radial_14_21" cx="0" cy="0" r="1" gradientUnits="userSpaceOnUse" gradientTransform="translate(688.043 381.122) rotate(89.6989) scale(277.359 1024.56)">
<stop offset="0.161458" stop-color="#683CAE" stop-opacity="0"/>
<stop offset="0.870486" stop-color="#58B8D7" stop-opacity="0.26"/>
</radialGradient>
<linearGradient id="paint5_linear_14_21" x1="689.5" y1="380.698" x2="689.5" y2="658.477" gradientUnits="userSpaceOnUse">
<stop offset="0.151042" stop-color="#6100FF" stop-opacity="0"/>
<stop offset="0.5" stop-color="white"/>
<stop offset="0.927083" stop-color="#DF61DA"/>
</linearGradient>
<radialGradient id="paint6_radial_14_21" cx="0" cy="0" r="1" gradientUnits="userSpaceOnUse" gradientTransform="translate(854.5 560) rotate(-122.613) scale(435.101)">
<stop stop-color="#732762"/>
<stop offset="1" stop-color="#6B5BCB"/>
</radialGradient>
<linearGradient id="paint7_linear_14_21" x1="408.584" y1="438.216" x2="417.785" y2="529.296" gradientUnits="userSpaceOnUse">
<stop offset="0.392184" stop-color="#AD00FF" stop-opacity="0"/>
<stop offset="1" stop-color="#E7A3F8"/>
</linearGradient>
<linearGradient id="paint8_linear_14_21" x1="421.218" y1="430.605" x2="325.535" y2="562.824" gradientUnits="userSpaceOnUse">
<stop offset="0.392184" stop-color="#00D1FF" stop-opacity="0"/>
<stop offset="1" stop-color="#A2EEFF"/>
<stop offset="1" stop-color="#DDF3FF"/>
</linearGradient>
</defs>
</svg>
