<svg width="43" height="25" viewBox="0 0 43 25" fill="none" xmlns="http://www.w3.org/2000/svg">
<path fill-rule="evenodd" clip-rule="evenodd" d="M30.7776 2.48575L3.57681 12.7982L30.181 22.5181L39.2297 13.3641L24.4142 13.364L29.0711 18.0209C29.4616 18.4114 29.4616 19.0446 29.0711 19.4351C28.6806 19.8256 28.0474 19.8256 27.6569 19.4351L21.2929 13.0712C20.9024 12.6806 20.9024 12.0475 21.2929 11.6569L27.6569 5.29298C28.0474 4.90246 28.6806 4.90246 29.0711 5.29298C29.4616 5.68351 29.4616 6.31667 29.0711 6.7072L24.4142 11.364L39.5537 11.3641L30.7776 2.48575ZM1.10755 11.1931C-0.378624 11.7566 -0.366059 13.8878 1.12675 14.4332L29.7679 24.8973C30.3902 25.1246 31.0863 24.9676 31.5541 24.4943L42.5002 13.4208C43.1667 12.7466 43.1665 11.6536 42.5002 10.9795L32.1468 0.505625C31.6738 0.0271216 30.9679 -0.127696 30.3414 0.109845L1.10755 11.1931Z" fill="#D9D9D9"/>
</svg>
