<svg xmlns="http://www.w3.org/2000/svg" viewBox="0 0 21.94 17.85"><defs><style>.cls-1{fill:#797778;}</style></defs><title>Asset 11</title><g id="Layer_2" data-name="Layer 2"><g id="Layer_1-2" data-name="Layer 1"><path class="cls-1" d="M21.88,9.94A6.6,6.6,0,0,0,21,7.39a7.08,7.08,0,0,0-1.64-1.82h0L12.44.28h0A1.47,1.47,0,0,0,11.55,0a1.65,1.65,0,0,0-.91.27.94.94,0,0,0-.43.7.86.86,0,0,0,.33.68l1.33,1.06,1.31,1H4.76A1.58,1.58,0,0,0,3,5a1.22,1.22,0,0,0,.28,1,1.29,1.29,0,0,0,1,.46H8.46L.81,12.05l0,0A1.9,1.9,0,0,0,0,13.33a1.29,1.29,0,0,0,.24.95,1.34,1.34,0,0,0,1.07.48,2,2,0,0,0,1.26-.46l4.13-3.38a3.63,3.63,0,0,0,0,.58,5.26,5.26,0,0,0,.23,1.29,6.73,6.73,0,0,0,1.46,2.53,7.62,7.62,0,0,0,2.56,1.84,8.22,8.22,0,0,0,3.34.69h0a8.09,8.09,0,0,0,3.35-.71,7.52,7.52,0,0,0,2.56-1.84,6.73,6.73,0,0,0,1.46-2.53,6.36,6.36,0,0,0,.27-1.42,6.65,6.65,0,0,0,0-1.41Zm-7.52,4.47a4.45,4.45,0,0,1-4.68-4.19A4.45,4.45,0,0,1,14.36,6,4.44,4.44,0,0,1,19,10.22,4.45,4.45,0,0,1,14.36,14.41Zm2.69-4.56a2.33,2.33,0,0,1-.72,1.81,2.9,2.9,0,0,1-4,0,2.36,2.36,0,0,1-.72-1.81,2.4,2.4,0,0,1,.86-1.68,2.83,2.83,0,0,1,1.84-.66,2.88,2.88,0,0,1,1.85.66,2.36,2.36,0,0,1,.85,1.68Z"/></g></g></svg>