<svg xmlns="http://www.w3.org/2000/svg" viewBox="0 0 550 400"><defs><style>.cls-1{fill:none;}.cls-2{fill:#3d3e3d;}</style></defs><title>cb_logo_grey</title><g id="Layer_2" data-name="Layer 2"><g id="Logo_CB" data-name="Logo CB"><rect class="cls-1" width="550" height="400"/><g id="Prototype"><path id="B" class="cls-2" d="M350.81,130.51H325.54a12.63,12.63,0,0,0-12.64,12.63h0a12.64,12.64,0,0,0,12.64,12.64h7.58a5,5,0,0,1,5.05,5.05v37.91a7.58,7.58,0,0,1-7.58,7.58H262.37A12.63,12.63,0,0,0,249.73,219h0a12.64,12.64,0,0,0,12.64,12.64h68.22a7.58,7.58,0,0,1,7.58,7.58v37.9a5.06,5.06,0,0,1-5.05,5.06H262.37a12.63,12.63,0,0,0-12.64,12.63h0a12.64,12.64,0,0,0,12.64,12.64h88.44a12.63,12.63,0,0,0,12.63-12.64V143.14A12.62,12.62,0,0,0,350.81,130.51Z"/><circle id="B_dot" data-name="B dot" class="cls-2" cx="287.63" cy="143.14" r="12.63"/><circle id="C_dot" data-name="C dot" class="cls-2" cx="262.37" cy="256.86" r="12.63"/><path id="C" class="cls-2" d="M186.56,105.24V256.86a12.62,12.62,0,0,0,12.63,12.63h25.27a12.63,12.63,0,0,0,12.64-12.63h0a12.64,12.64,0,0,0-12.64-12.64h-7.58a5,5,0,0,1-5-5.05V122.93a5.06,5.06,0,0,1,5-5.06h70.75a12.63,12.63,0,0,0,12.64-12.63h0A12.64,12.64,0,0,0,287.63,92.6H199.19A12.63,12.63,0,0,0,186.56,105.24Z"/><path id="B_second_part" data-name="B second part" class="cls-2" d="M363.44,219v75.81a12.63,12.63,0,0,1-12.63,12.64H262.37a12.64,12.64,0,1,1,0-25.27h70.75a5.06,5.06,0,0,0,5.05-5.06v-37.9a7.58,7.58,0,0,0-7.58-7.58H262.37a12.64,12.64,0,1,1,0-25.27h88.44A12.62,12.62,0,0,1,363.44,219Z"/></g></g></g></svg>