<svg xmlns="http://www.w3.org/2000/svg" viewBox="0 0 18.59 18.59"><defs><style>.cls-1{fill:#757474;}</style></defs><title>Asset 4</title><g id="Layer_2" data-name="Layer 2"><g id="Layer_1-2" data-name="Layer 1"><g id="g6236"><path class="cls-1" d="M17.89,8.94a6.86,6.86,0,0,0-.14-1.27A8.28,8.28,0,0,0,17,5.41a8.33,8.33,0,0,0-1.12-1.7A8.89,8.89,0,0,0,14,2.05a8.55,8.55,0,0,0-3-1.2,9.09,9.09,0,0,0-1-.14,1.49,1.49,0,0,1-.21,0H8.86a1.32,1.32,0,0,1-.28,0A9,9,0,0,0,7,1,8.54,8.54,0,0,0,4.17,2.38,8.76,8.76,0,0,0,2.73,3.73a8.39,8.39,0,0,0-1.1,1.66A8.45,8.45,0,0,0,.77,8.12l-.06.6a.23.23,0,0,1,0,.12v.89a.34.34,0,0,1,0,.14,8.87,8.87,0,0,0,.53,2.44,8.36,8.36,0,0,0,1.4,2.42,8.41,8.41,0,0,0,1.75,1.62,8.66,8.66,0,0,0,2.3,1.14,9.07,9.07,0,0,0,1.48.33l.81.07h.58l.26,0a7.78,7.78,0,0,0,1-.11,8.63,8.63,0,0,0,4.19-2,9.13,9.13,0,0,0,1.45-1.65,8.64,8.64,0,0,0,1.2-2.66,9.1,9.1,0,0,0,.25-1.55,2.09,2.09,0,0,0,0-.25.34.34,0,0,1,0-.1V9S17.89,9,17.89,8.94Zm-9.31,1.2a8.81,8.81,0,0,1-.34,1.14,7.27,7.27,0,0,1-.38.91,3.68,3.68,0,0,1-.46.7,1.85,1.85,0,0,1-1.11.66,2.27,2.27,0,0,1-.43,0,2.16,2.16,0,0,1-2.15-1.77,2.12,2.12,0,0,1,.59-1.9,1.91,1.91,0,0,1,1.09-.58,2.3,2.3,0,0,1,.45,0,6.39,6.39,0,0,1,1.57.16c.31.07.62.16.92.25A.32.32,0,0,1,8.58,10.14Zm.86-1.28A.42.42,0,0,1,9.29,9a.2.2,0,0,1-.17,0A.49.49,0,0,1,9,8.86,8.18,8.18,0,0,1,7.54,7.14a3,3,0,0,1-.41-.91,1.57,1.57,0,0,1-.07-.51A2.23,2.23,0,0,1,8.89,3.48,2,2,0,0,1,10.62,4a2.31,2.31,0,0,1,.73,1.45,2.13,2.13,0,0,1-.15,1,4.7,4.7,0,0,1-.5.91,10.26,10.26,0,0,1-.71.89C9.82,8.47,9.63,8.67,9.44,8.86Zm5.26,3a2.16,2.16,0,0,1-2.14,1.77,2.28,2.28,0,0,1-.44,0A1.91,1.91,0,0,1,11,12.89a3.22,3.22,0,0,1-.45-.7,7.33,7.33,0,0,1-.39-.91,10.68,10.68,0,0,1-.33-1.14.32.32,0,0,1,.24-.43c.31-.09.61-.18.93-.25a6.26,6.26,0,0,1,1.56-.16,2.14,2.14,0,0,1,.45,0,1.94,1.94,0,0,1,1.1.58A2.09,2.09,0,0,1,14.7,11.83Z"/></g><path class="cls-1" d="M9.29,18.59a9.3,9.3,0,1,1,9.3-9.3A9.31,9.31,0,0,1,9.29,18.59ZM9.29.15a9.14,9.14,0,1,0,9.14,9.14A9.16,9.16,0,0,0,9.29.15Z"/></g></g></svg>