<svg width="30" height="30" viewBox="0 0 30 30" fill="none" xmlns="http://www.w3.org/2000/svg">
<mask id="mask0_502_1891" style="mask-type:alpha" maskUnits="userSpaceOnUse" x="0" y="0" width="30" height="30">
<circle cx="15" cy="15" r="15" fill="#D9D9D9"/>
</mask>
<g mask="url(#mask0_502_1891)">
<path d="M26.4857 -0.141602H3.51429C1.57714 -0.141602 0 1.43461 0 3.38773V26.5511C0 28.5043 1.57714 30.0805 3.51429 30.0805H26.4857L30 26.5511V3.38773C30 1.43461 28.4229 -0.141602 26.4857 -0.141602ZM19.8686 22.2337C19.8686 22.2337 19.2514 21.497 18.7371 20.846C20.9829 20.212 21.84 18.8072 21.84 18.8072C21.1371 19.2697 20.4686 19.5953 19.8686 19.818C19.0114 20.1778 18.1886 20.4176 17.3829 20.5547C15.7371 20.8631 14.2286 20.7774 12.9429 20.5376C11.9657 20.3491 11.1257 20.075 10.4229 19.8009C10.0286 19.6467 9.6 19.4582 9.17143 19.2183C9.12 19.1841 9.06857 19.167 9.01714 19.1327C8.98286 19.1156 8.96571 19.0984 8.94857 19.0813C8.64 18.91 8.46857 18.79 8.46857 18.79C8.46857 18.79 9.29143 20.1606 11.4686 20.8117C10.9543 21.4627 10.32 22.2337 10.32 22.2337C6.53143 22.1138 5.09143 19.6295 5.09143 19.6295C5.09143 14.1128 7.56 9.64117 7.56 9.64117C10.0286 7.79084 12.3771 7.84224 12.3771 7.84224L12.5486 8.04783C9.46286 8.93873 8.04 10.2922 8.04 10.2922C8.04 10.2922 8.41714 10.0866 9.05143 9.79536C10.8857 8.99013 12.3429 8.7674 12.9429 8.716C13.0457 8.69887 13.1314 8.68174 13.2343 8.68174C14.28 8.54468 15.4629 8.51041 16.6971 8.64747C18.3257 8.83593 20.0743 9.31565 21.8571 10.2922C21.8571 10.2922 20.5029 9.00726 17.5886 8.11636L17.8286 7.84224C17.8286 7.84224 20.1771 7.79084 22.6457 9.64117C22.6457 9.64117 25.1143 14.1128 25.1143 19.6295C25.1143 19.6295 23.6571 22.1138 19.8686 22.2337ZM11.8971 14.2327C10.92 14.2327 10.1486 15.0894 10.1486 16.1345C10.1486 17.1796 10.9371 18.0362 11.8971 18.0362C12.8743 18.0362 13.6457 17.1796 13.6457 16.1345C13.6629 15.0894 12.8743 14.2327 11.8971 14.2327ZM18.1543 14.2327C17.1771 14.2327 16.4057 15.0894 16.4057 16.1345C16.4057 17.1796 17.1943 18.0362 18.1543 18.0362C19.1314 18.0362 19.9029 17.1796 19.9029 16.1345C19.9029 15.0894 19.1314 14.2327 18.1543 14.2327Z" fill="#B8D5DE"/>
</g>
</svg>
