<svg xmlns="http://www.w3.org/2000/svg" viewBox="0 0 24.19 17.95"><defs><style>.cls-1,.cls-2{fill:#757474;}.cls-2{stroke:#757474;stroke-miterlimit:10;stroke-width:0.25px;}</style></defs><title>Asset 9</title><g id="Layer_2" data-name="Layer 2"><g id="Layer_1-2" data-name="Layer 1"><path id="path4" class="cls-1" d="M19.64.63h0L19.16,1,17.93,2.63,15.35,4.51,13.06,5l.45.74.39,1.68-.74,1.35s-.9.71-1.07.81a6.77,6.77,0,0,1-1.93-.19,8,8,0,0,1-.9-1L8.9,6.76l.61-1.35-.45-.26-.61-.1-.16.36.55.71-.07.55V8l-.9.9L6.55,9l-1-.42-.07.16.16,1.35L5.1,11.34l-.78.52,1.1,1,2.39.94,2.29.64,2.8.19L16,14l.14-.12L13.58,12.1l.92-.92a15,15,0,0,1,3.08,1.07c1.64.77,2.32-8.2,2.32-8.2ZM5.25,2.72Zm0,0,0,2.78,1-.66,1.09-.11-.77-.92ZM13.65,10c.75.23,1.76.65,1.91,1.41a1.69,1.69,0,0,0-1.16-.25,1,1,0,0,0-.85,1c-.94.43-3.38.11-4.89-.39,3.34.14,4.08,0,5.7-1L13.65,10Z"/><path id="path6" class="cls-1" d="M11.32,4.35A2.75,2.75,0,0,0,8.57,7.1h0a2.76,2.76,0,0,0,2.75,2.76h0A2.76,2.76,0,0,0,14.07,7.1h0a2.75,2.75,0,0,0-2.75-2.75Zm0,.51A2.25,2.25,0,0,1,13.56,7.1h0a2.24,2.24,0,0,1-2.24,2.24h0A2.24,2.24,0,0,1,9.08,7.1h0a2.24,2.24,0,0,1,2.24-2.24Z"/><path id="path8" class="cls-1" d="M6.87,4.51a2.4,2.4,0,0,0,0,4.8h0a2.4,2.4,0,0,0,2-1,2.63,2.63,0,0,1-.22-.65A1.89,1.89,0,0,1,5,6.91H5A1.89,1.89,0,0,1,6.87,5h0a1.89,1.89,0,0,1,1.8,1.33A3,3,0,0,1,9,5.71a2.41,2.41,0,0,0-2.08-1.2Z"/><path id="path10" class="cls-1" d="M7.37,6a1.25,1.25,0,0,0-.54.12l.18,0a.72.72,0,1,1-.72.72h0a.74.74,0,0,1,.09-.36,1.32,1.32,0,0,0-.3.83A1.29,1.29,0,0,0,7.37,8.53h0A1.29,1.29,0,0,0,7.37,6Z"/><path id="path12" class="cls-1" d="M11.88,6a1.57,1.57,0,0,0-.67.16.91.91,0,0,1,.23,0,.85.85,0,0,1,.84.84h0a.85.85,0,0,1-.84.84h0A.84.84,0,0,1,10.6,7h0a.75.75,0,0,1,.07-.33A1.47,1.47,0,0,0,11.88,9h0A1.47,1.47,0,0,0,13.35,7.5h0A1.47,1.47,0,0,0,11.88,6Z"/><path id="path14" class="cls-1" d="M2,5.84a2,2,0,0,0-.54.07C.07,6.27-.42,8,.39,9.65h0c.81,1.7,2.62,2.79,4,2.43h0c1.42-.37,1.91-2,1.1-3.75h0a1.62,1.62,0,0,0-.1-.18,1.88,1.88,0,0,1-.31-.51A4,4,0,0,0,2,5.84Zm.15.51A3.5,3.5,0,0,1,5.11,8.44c.68,1.43.27,2.83-.92,3.14h0a3.28,3.28,0,0,1-3.38-2h0C.13,8.12.54,6.71,1.73,6.41h0a1.74,1.74,0,0,1,.45-.06Z"/><path id="path16" class="cls-1" d="M19.32,0h0c-.15,0-.32.18-.51.65-1,2.62-4,3.92-6.84,4.27a2.14,2.14,0,0,1,.85.46,9,9,0,0,0,6.53-4.24c.19-.35.18,1.52.18,1.52s.59,6.47-2,9.55a7.06,7.06,0,0,1-1.82,1.44C10.13,16.07,4.8,12,4.8,12l0,0a3.24,3.24,0,0,1-.33.13l-.22,0,0,0v0c.15.08.64.43.64.43a12.41,12.41,0,0,0,10.7,1.67,5.86,5.86,0,0,0,3.18-3.14C20.63,6.7,19.87,1,19.87,1s-.17-1-.55-1ZM5,1.29,4.87,5.68a1.76,1.76,0,0,1,.53-.62l0-1.89A6.33,6.33,0,0,0,9.14,5.49a4,4,0,0,0,.54.06A2.23,2.23,0,0,1,10.45,5c-.29,0-.56,0-.83,0C6.26,4.77,5,1.29,5,1.29Z"/><path id="path18" class="cls-2" d="M13.6,12.09a31.24,31.24,0,0,0,4.78,2.67c.2.06.81-1.58.81-1.58a19.78,19.78,0,0,0-4.52-1.95c-.59-.16-1,.58-1.07.86Z"/><path id="path20" class="cls-1" d="M19.4,13c-.37.19-1.53.94-.9,2l.22-.08a2.84,2.84,0,0,1,.78-1.66Zm.14.37a2.46,2.46,0,0,0-.73,1.51l1.83.7a1.62,1.62,0,0,0,1.18,1.32c2,.59,2.31.87,2.36,1-.95-4.83-3-3.46-3-3.46Zm4.64,4.5v0S24.2,17.94,24.18,17.91Z"/></g></g></svg>