<svg width="56" height="56" viewBox="0 0 56 56" fill="none" xmlns="http://www.w3.org/2000/svg">
<path fill-rule="evenodd" clip-rule="evenodd" d="M56 28C56 43.464 43.464 56 28 56C12.536 56 0 43.464 0 28C0 12.536 12.536 0 28 0C43.464 0 56 12.536 56 28ZM28 53C41.8071 53 53 41.8071 53 28C53 14.1929 41.8071 3 28 3C14.1929 3 3 14.1929 3 28C3 41.8071 14.1929 53 28 53Z" fill="#F0F0F0"/>
<path fill-rule="evenodd" clip-rule="evenodd" d="M20.4065 52.7168C22.8588 53.5492 25.4826 54 28.2098 54C30.9382 54 33.563 53.5488 36.0162 52.7157C34.7864 52.9433 34.3485 52.1655 34.3485 51.5008C34.3485 51.2256 34.3517 50.7433 34.3559 50.0986C34.3644 48.7991 34.3772 46.8398 34.3772 44.5865C34.3772 42.2358 33.5862 40.7025 32.6984 39.9206C38.2099 39.2969 44 37.1661 44 27.4889C44 24.7381 43.0397 22.4905 41.4527 20.7261C41.7097 20.0915 42.5573 17.5288 41.2101 14.0583C41.2101 14.0583 39.1345 13.3812 34.4104 16.641C32.4324 16.0827 30.3134 15.8028 28.21 15.7932C26.1066 15.8028 23.9892 16.0827 22.0149 16.641C17.2851 13.3812 15.2067 14.0583 15.2067 14.0583C13.8627 17.5288 14.7099 20.0915 14.9669 20.7261C13.3836 22.4905 12.4167 24.7381 12.4167 27.4889C12.4167 37.1432 18.1958 39.3036 23.6933 39.9407C22.9855 40.5698 22.344 41.6813 22.1219 43.3098C20.7095 43.9536 17.1269 45.0671 14.9194 41.2153C14.9194 41.2153 13.6107 38.7966 11.1253 38.6189C11.1253 38.6189 8.71035 38.5868 10.956 40.1505C10.956 40.1505 12.5782 40.9249 13.7041 43.8372C13.7041 43.8372 15.1571 48.334 22.0428 46.8099C22.0486 47.9542 22.058 49.0629 22.0654 49.9331C22.0716 50.6639 22.0764 51.2265 22.0764 51.5008C22.0764 52.1625 21.6275 52.9372 20.4065 52.7168Z" fill="#F0F0F0"/>
</svg>
