<svg xmlns="http://www.w3.org/2000/svg" viewBox="0 0 19.59 18.1"><defs><style>.cls-1,.cls-2{fill:#797778;}.cls-2{stroke:#fff;stroke-miterlimit:10;stroke-width:0.5px;}</style></defs><title>Asset 10</title><g id="Layer_2" data-name="Layer 2"><g id="Layer_1-2" data-name="Layer 1"><circle class="cls-1" cx="10.72" cy="9.24" r="8.87"/><path class="cls-2" d="M1.59,2.39h0a.3.3,0,0,0-.08-.08A.1.1,0,0,1,1.59,2.39Z"/><path class="cls-2" d="M16.06,12.87c0,.11,0,.22,0,.33s0,.11-.07.15a.63.63,0,0,0-.08.23l-.21.45c-.07.09-.13.19-.2.29l-.19.24-.22.23a.87.87,0,0,0-.17.16,1.56,1.56,0,0,0-.2.16.39.39,0,0,0-.1.08.23.23,0,0,0-.1.07l-.19.13s-.06,0-.08,0,0-.05,0-.08l.05-.07a1.09,1.09,0,0,0,0-1.05,1.52,1.52,0,0,0-.32-.51.37.37,0,0,1-.07-.12c-.14-.23-.31-.43-.45-.66a2.38,2.38,0,0,1-.35-.84.92.92,0,0,1,0-.16,1.61,1.61,0,0,1,0-.22s-.09,0-.12,0l-.52-.34a.41.41,0,0,0-.11-.07l-.81-.6-.19-.13-.52-.4c0,.05-.06,0-.1.05a2.3,2.3,0,0,1-.37,0,3.81,3.81,0,0,1-.87-.27.1.1,0,0,1-.05,0v0H9.38a4.32,4.32,0,0,1-.82-.44s0,0,0,0l-.17-.12h0a2.58,2.58,0,0,1-.68-.51c-.08-.11-.22-.17-.31-.29s-.4-.37-.61-.56-.27-.3-.4-.46l-.1-.12h0a.21.21,0,0,1-.15-.14,8.4,8.4,0,0,0-.7-.76l0-.07a5.38,5.38,0,0,1-.52-.55h0l-.06,0c-.06-.09-.16-.14-.21-.24h0c-.11,0-.16-.16-.26-.22A2.41,2.41,0,0,1,4.06,5S4,4.94,4,4.89s-.13-.11-.2-.16-.32-.37-.5-.53,0-.07,0-.09l-.46-.49c-.4-.4-.8-.81-1.19-1.23h0a.1.1,0,0,0-.08-.08c-.22-.21-.43-.43-.64-.66a2.51,2.51,0,0,1-.52-.56.52.52,0,0,1,0-.55A.52.52,0,0,1,.91.27a1,1,0,0,1,.36.15L1.84.8a5.35,5.35,0,0,1,.64.41l.09.06a.68.68,0,0,1,.23.14l.11.07c.06,0,.09.05.13.07l1,.61.62.37h0c.17.08.32.2.48.29a1,1,0,0,1,.32.23h0c.11,0,.17.09.26.13a1.55,1.55,0,0,1,.39.28h0c.09,0,.13,0,.2.08s.43.27.65.39a5.8,5.8,0,0,1,.52.34h0s.07,0,.11,0a3.85,3.85,0,0,1,.6.39v0c0,.06.07.12.16.08h0a.07.07,0,0,1,.06,0c.06,0,.1,0,.15.05L8.71,5a6.65,6.65,0,0,1,.63.39c.09.07.19.13.27.2a.1.1,0,0,1,0,0l.06,0c.15.1.29.23.44.34s.27.25.42.37l.29.29a.23.23,0,0,1,.08.12h0a2.67,2.67,0,0,1,.42.47s.07.08.06.13.08.08.11.12a3.45,3.45,0,0,1,.2.32c.06.12.12.24.17.37L12,8.4a.11.11,0,0,1,0,.08l0,0,0,0c.11.11.23.2.34.3s.23.22.36.32a1,1,0,0,0,.19.17l.32.29c.12.13.26.24.39.36l.29.3.19.19h0a.77.77,0,0,1,.26,0,.92.92,0,0,1,.28,0l.23.07a1.39,1.39,0,0,1,.37.22l.18.18a1.66,1.66,0,0,1,.24.3,1.71,1.71,0,0,1,.13.23,2.09,2.09,0,0,1,.17.41,1.21,1.21,0,0,1,.05.18,1.76,1.76,0,0,1,.06.39A3.09,3.09,0,0,1,16.06,12.87Z"/><path class="cls-2" d="M1.59,2.39h0a.2.2,0,0,1-.08-.08A.1.1,0,0,1,1.59,2.39Z"/><path class="cls-2" d="M4.83,5.76h0Z"/><path class="cls-2" d="M8.37,4.82c-.09,0-.13,0-.16-.08s.1.06.16.07Z"/></g></g></svg>