<svg width="56" height="56" viewBox="0 0 56 56" fill="none" xmlns="http://www.w3.org/2000/svg">
<path fill-rule="evenodd" clip-rule="evenodd" d="M56 28C56 43.464 43.464 56 28 56C12.536 56 0 43.464 0 28C0 12.536 12.536 0 28 0C43.464 0 56 12.536 56 28ZM28 53C41.8071 53 53 41.8071 53 28C53 14.1929 41.8071 3 28 3C14.1929 3 3 14.1929 3 28C3 41.8071 14.1929 53 28 53Z" fill="#F0F0F0"/>
<path fill-rule="evenodd" clip-rule="evenodd" d="M15.5276 40.6001H21.0166V22.8667H15.5276V40.6001ZM15 17.2722C15 19.0792 16.4533 20.5443 18.2459 20.5443C20.0385 20.5443 21.4917 19.0793 21.4916 17.2722C21.4916 15.465 20.0384 14 18.2459 14C16.4535 14 15 15.465 15 17.2722ZM36.1242 40.6001H41.5866L41.5867 29.3715C41.5867 24.6217 38.8949 22.3257 35.1346 22.3257C31.3743 22.3257 29.7907 25.255 29.7907 25.255V22.8667H24.5262V40.6001H29.7907V31.2915C29.7907 28.7976 30.9385 27.3133 33.1357 27.3133C35.1544 27.3133 36.1242 28.7384 36.1242 31.2915V40.6001Z" fill="#F0F0F0"/>
</svg>
