<svg xmlns="http://www.w3.org/2000/svg" viewBox="0 0 19.91 17.85"><defs><style>.cls-1{fill:#757474;}</style></defs><title>Asset 7</title><g id="Layer_2" data-name="Layer 2"><g id="Layer_1-2" data-name="Layer 1"><path class="cls-1" d="M1.67,14.11A1.4,1.4,0,0,1,1,14a1.65,1.65,0,0,1-.87-2.19l3-6.93A1.67,1.67,0,0,1,6.18,6.18l-3,6.92A1.66,1.66,0,0,1,1.67,14.11Z"/><path class="cls-1" d="M6.42,17.85a1.43,1.43,0,0,1-.66-.14,1.65,1.65,0,0,1-.87-2.19L11.1,1a1.67,1.67,0,0,1,3.06,1.32L8,16.84A1.64,1.64,0,0,1,6.42,17.85Z"/><path class="cls-1" d="M13.56,16.06a1.47,1.47,0,0,1-.67-.14A1.66,1.66,0,0,1,12,13.73l4.69-11a1.67,1.67,0,1,1,3.06,1.33L15.09,15.05A1.61,1.61,0,0,1,13.56,16.06Z"/></g></g></svg>