<svg width="44" height="44" viewBox="0 0 44 44" fill="none" xmlns="http://www.w3.org/2000/svg">
<path fill-rule="evenodd" clip-rule="evenodd" d="M22 44C34.1503 44 44 34.1503 44 22C44 9.84974 34.1503 0 22 0C9.84974 0 0 9.84974 0 22C0 34.1503 9.84974 44 22 44ZM41.6429 22C41.6429 32.8484 32.8484 41.6429 22 41.6429C11.1515 41.6429 2.35714 32.8484 2.35714 22C2.35714 11.1515 11.1515 2.35714 22 2.35714C32.8484 2.35714 41.6429 11.1515 41.6429 22ZM14.1214 13.024C14.466 13 14.8823 13 15.3648 13H28.6352C29.1177 13 29.534 13 29.8786 13.024C30.2414 13.0493 30.6043 13.105 30.9629 13.2569C31.7714 13.5995 32.4139 14.2565 32.7488 15.0834C32.8973 15.4501 32.9518 15.8213 32.9765 16.1923C33 16.5447 33 16.9705 33 17.464V26.536C33 27.0295 33 27.4553 32.9765 27.8077C32.9518 28.1787 32.8973 28.5499 32.7488 28.9166C32.4139 29.7435 31.7714 30.4005 30.9629 30.7431C30.6043 30.895 30.2414 30.9507 29.8786 30.976C29.534 31 29.1177 31 28.6352 31H15.3648C14.8823 31 14.466 31 14.1214 30.976C13.7586 30.9507 13.3957 30.895 13.0371 30.7431C12.2286 30.4005 11.5861 29.7435 11.2512 28.9166C11.1027 28.5499 11.0482 28.1787 11.0235 27.8077C11 27.4553 11 27.0294 11 26.536V17.464C11 16.9705 11 16.5447 11.0235 16.1923C11.0482 15.8213 11.1027 15.4501 11.2512 15.0834C11.5861 14.2565 12.2286 13.5995 13.0371 13.2569C13.3957 13.105 13.7586 13.0493 14.1214 13.024ZM13.5495 15.5622C13.9496 15.0946 14.6445 15.0472 15.1017 15.4564L21.276 20.9816C21.6907 21.3528 22.3099 21.3528 22.7247 20.9816L28.8989 15.4564C29.3561 15.0472 30.0511 15.0946 30.4511 15.5622C30.8512 16.0298 30.8048 16.7405 30.3476 17.1497L24.1734 22.6749C22.9292 23.7883 21.0714 23.7883 19.8272 22.6749L13.653 17.1497C13.1958 16.7405 13.1495 16.0298 13.5495 15.5622Z" fill="#F0F0F0"/>
</svg>
