<svg xmlns="http://www.w3.org/2000/svg" xmlns:xlink="http://www.w3.org/1999/xlink" viewBox="0 0 17.85 17.85"><defs><style>.cls-1{fill:#797778;}.cls-2{clip-path:url(#clip-path);}.cls-3{fill:#fff;}</style><clipPath id="clip-path"><path class="cls-1" d="M0,8.93A8.93,8.93,0,1,0,8.93,0,8.92,8.92,0,0,0,0,8.93"/></clipPath></defs><title>Asset 8</title><g id="Layer_2" data-name="Layer 2"><g id="Layer_1-2" data-name="Layer 1"><path class="cls-1" d="M0,8.93A8.93,8.93,0,1,0,8.93,0,8.92,8.92,0,0,0,0,8.93"/><g class="cls-2"><rect class="cls-1" width="17.85" height="17.85"/></g><path class="cls-3" d="M12.43,6.06A4,4,0,0,1,6.92,7.55l-.11-.07a4.13,4.13,0,0,1-.91-.76,4,4,0,0,1-1-2.86l0-.35L5,3.17l.09-.35.12-.32.15-.33c.06-.11.13-.22.2-.33a2.83,2.83,0,0,1,.2-.28A3.47,3.47,0,0,1,6,1.27,3.57,3.57,0,0,1,6.27,1a2.25,2.25,0,0,1,.3-.24L6.74.64A5,5,0,0,0,4.53,7.2l0,.07,0,0v0h.17l.29,0a4,4,0,0,1,3.61,3.37,4.16,4.16,0,0,1,0,1.22,4,4,0,0,1-1.95,2.91,4,4,0,0,1-2.51.54l-.47-.08-.3-.08a5.12,5.12,0,0,0,1.39.38,4.63,4.63,0,0,0,1.34,0,4.76,4.76,0,0,0,2.2-.91A5.08,5.08,0,0,0,9.6,13.4l0-.07v0a.08.08,0,0,0,0,0l-.08-.15c-.05-.11-.09-.21-.13-.32a3.28,3.28,0,0,1-.19-.68,4.2,4.2,0,0,1,0-1.5,4,4,0,0,1,3.94-3.29h.3l.28,0,.28,0,.27.07.26.08.26.1.26.12.24.14.22.15a1.84,1.84,0,0,1,.22.17l.21.18.21.22c.07.07.13.15.2.23a1.85,1.85,0,0,1,.19.27,2.82,2.82,0,0,1,.18.29,4.14,4.14,0,0,1,.2.43,4.91,4.91,0,0,1,.17.5,4.9,4.9,0,0,0-1.05-2.45,5.16,5.16,0,0,0-1.52-1.27,4.94,4.94,0,0,0-2-.57Z"/></g></g></svg>