<svg xmlns="http://www.w3.org/2000/svg" viewBox="0 0 18.36 17.85"><defs><style>.cls-1{fill:#525252;}.cls-2{fill:#fff;}</style></defs><title>Asset 6</title><g id="Layer_2" data-name="Layer 2"><g id="Layer_1-2" data-name="Layer 1"><path class="cls-1" d="M13.62,1.21a8.88,8.88,0,0,0-11,1.64A8.7,8.7,0,0,0,.25,8.37a8.32,8.32,0,0,0,.38,3.16l.5-.2A.24.24,0,0,0,1.3,11a5.82,5.82,0,0,1-.17-.91A8,8,0,0,1,5.3,1.87,8.13,8.13,0,0,1,17,11.22h0a4.49,4.49,0,0,0,.71.31A8.9,8.9,0,0,0,13.62,1.21Z"/><path class="cls-1" d="M16.53,14.28c-.27-.14-.54-.28-.79-.44A9.71,9.71,0,0,1,12.31,10c-.33-.58-.67-1.15-1-1.73L11.12,8a2.83,2.83,0,0,0-.91-1,1.82,1.82,0,0,0-1-.33,1.84,1.84,0,0,0-1,.34,3.24,3.24,0,0,0-1,1.05l-.47.8c-.51.86-1,1.73-1.57,2.57a8.47,8.47,0,0,1-3.69,3l-.09,0-.06-.08a.51.51,0,0,1-.09-.14L.9,13.61c-.24-.5-.47-1-.71-1.52a.38.38,0,0,1,0-.33.38.38,0,0,1,.25-.19A4.87,4.87,0,0,0,3.21,9.16c.24-.41.47-.84.71-1.26s.43-.79.66-1.19A5.64,5.64,0,0,1,7.36,4.13a4.9,4.9,0,0,1,1.87-.39A4.85,4.85,0,0,1,12.35,5,6.92,6.92,0,0,1,14,7.15l.19.36A13,13,0,0,0,16,10.24a6.6,6.6,0,0,0,.6.58l.25.21a.31.31,0,0,0,.12.07l.09.06.15.08a3.6,3.6,0,0,0,.54.22h0l0,0c.25.1.37.16.41.28s0,.24-.12.48l-.86,1.87-.21.41Z"/><path class="cls-2" d="M9.23,3.86a4.72,4.72,0,0,1,3,1.2,6.71,6.71,0,0,1,1.66,2.15,14.73,14.73,0,0,0,1.94,3.11,10.85,10.85,0,0,0,.86.8,1.25,1.25,0,0,0,.24.15h0a4.49,4.49,0,0,0,.71.31h.07c.43.19.42.19.23.6l-.87,1.87-.14.28c-.4-.21-.8-.41-1.17-.63A9.9,9.9,0,0,1,12.41,10c-.38-.68-.78-1.36-1.18-2a3.19,3.19,0,0,0-1-1,2,2,0,0,0-1.1-.34,2,2,0,0,0-1.11.36A3.34,3.34,0,0,0,7.08,8c-.67,1.12-1.32,2.26-2,3.36a8.35,8.35,0,0,1-3.64,3,.76.76,0,0,1-.08-.11C1,13.51.65,12.77.3,12c-.09-.18-.07-.28.14-.35A5,5,0,0,0,3.32,9.23c.47-.81.9-1.64,1.36-2.45A5.64,5.64,0,0,1,7.4,4.24a5,5,0,0,1,1.83-.38m0-.25A5.2,5.2,0,0,0,7.31,4,5.76,5.76,0,0,0,4.47,6.65c-.23.4-.45.8-.67,1.2s-.46.84-.7,1.25A4.75,4.75,0,0,1,.37,11.45a.51.51,0,0,0-.34.26.55.55,0,0,0,0,.44c.24.48.46,1,.69,1.46l.34.74a.52.52,0,0,0,.08.11l.12.17.22-.05a8.68,8.68,0,0,0,3.74-3.07c.54-.85,1.06-1.73,1.57-2.58l.47-.79a3.1,3.1,0,0,1,.91-1,1.68,1.68,0,0,1,1-.32,1.75,1.75,0,0,1,1,.3A2.87,2.87,0,0,1,11,8l.15.25,1,1.78A9.81,9.81,0,0,0,15.67,14c.26.16.53.3.8.44l.38.2.22.13.12-.23.06-.12.09-.18.42-.9.45-1c.12-.26.19-.41.12-.58s-.21-.24-.46-.35l0,0h-.1a2.81,2.81,0,0,1-.51-.22l-.14-.07h0L17,11l-.1-.06-.24-.21a8.18,8.18,0,0,1-.6-.57,13.42,13.42,0,0,1-1.72-2.7l-.19-.37a7.06,7.06,0,0,0-1.72-2.23,5,5,0,0,0-3.2-1.25Z"/><path class="cls-1" d="M2.71,14c.48.44.91.89,1.4,1.28A8.11,8.11,0,0,0,15,14.62c.2-.2.4-.41.58-.63s.21-.15.34-.06l.49.29c-.32.37-.6.74-.92,1.06A8.92,8.92,0,0,1,2.63,15a4.22,4.22,0,0,1-.38-.46c-.11-.12-.09-.22,0-.3Z"/></g></g></svg>