<svg width="70" height="91" viewBox="0 0 70 91" fill="none" xmlns="http://www.w3.org/2000/svg">
<path fill-rule="evenodd" clip-rule="evenodd" d="M33.6201 72.2996C34.4707 73.1508 35.8516 73.1505 36.7032 72.2989L49.9336 59.0682C50.5381 58.4636 50.7344 57.5617 50.4346 56.7615L36.4453 19.4146C35.7344 17.5159 33.043 17.5327 32.3535 19.44L19.1299 56.0358C18.8428 56.8309 19.0401 57.7203 19.6377 58.3178L33.6201 72.2996ZM33.043 55.2409C33.043 55.4099 33.0479 55.6634 33.0576 56.0014H35.6182C35.6377 54.9873 35.7119 54.2549 35.8399 53.8042C35.9678 53.3535 36.1651 52.9544 36.4317 52.607C36.6983 52.2596 37.2657 51.7197 38.1338 50.9873C39.4258 49.8981 40.294 48.9732 40.7383 48.2127C41.1826 47.4521 41.4043 46.6211 41.4043 45.7197C41.4043 44.161 40.7725 42.8324 39.5098 41.7338C38.2471 40.6352 36.5547 40.0859 34.4336 40.0859C32.4307 40.0859 30.8184 40.5977 29.5948 41.6211C28.3809 42.6446 27.6514 44.1188 27.4043 46.0436L30.1426 46.3535C30.3789 44.9169 30.877 43.8606 31.6367 43.1845C32.3965 42.5085 33.3438 42.1704 34.4785 42.1704C35.6524 42.1704 36.6436 42.546 37.4532 43.2972C38.2617 44.039 38.666 44.9028 38.666 45.8887C38.666 46.4333 38.5283 46.9357 38.252 47.3958C37.9756 47.8559 37.3741 48.4756 36.4463 49.2549C35.5293 50.0249 34.8926 50.6117 34.5371 51.0155C34.0537 51.5695 33.7041 52.1188 33.4864 52.6634C33.1905 53.3864 33.043 54.2456 33.043 55.2409ZM32.8946 58.1986V61.0859H35.9287V58.1986H32.8946Z" fill="white" fill-opacity="0.5"/>
</svg>
