<svg width="39" height="79" viewBox="0 0 39 79" fill="none" xmlns="http://www.w3.org/2000/svg">
<path d="M18.7306 58.5632C19.0416 58.2522 19.5459 58.2522 19.8569 58.5632L24.9656 63.6719C25.1839 63.8902 25.2564 64.2151 25.1515 64.5055L20.324 77.8728C20.0723 78.5695 19.0891 78.5754 18.8292 77.8817L13.716 64.2378C13.6064 63.9455 13.6778 63.616 13.8986 63.3952L18.7306 58.5632Z" fill="#FF985F"/>
<path fill-rule="evenodd" clip-rule="evenodd" d="M20.9995 51.0149C20.2129 51.8016 18.9375 51.8016 18.1508 51.0149L12.3712 45.2353L13.0444 47.7479C13.1244 48.0461 13.0247 48.3637 12.7886 48.5628L1.92422 57.7254C1.35797 58.2029 0.503534 57.7164 0.625231 56.9858L3.01901 42.6132C3.07031 42.3052 3.29686 42.0556 3.59846 41.9748L7.94585 40.8099L5.2293 38.0934C4.67704 37.5411 4.4938 36.7194 4.75908 35.9848L16.9695 2.17471C17.6059 0.412518 20.0928 0.397608 20.7503 2.15205L33.6832 36.6619C33.9604 37.4014 33.7798 38.2347 33.2214 38.7931L31.1117 40.9028L35.4906 42.0761C35.7889 42.156 36.0141 42.4012 36.0684 42.7051L38.5713 56.6953C38.7017 57.4244 37.8532 57.9211 37.2812 57.4504L26.0311 48.1911C25.7901 47.9926 25.6872 47.6716 25.768 47.37L26.1792 45.8352L20.9995 51.0149ZM19 32C22.3137 32 25 29.3137 25 26C25 22.6863 22.3137 20 19 20C15.6863 20 13 22.6863 13 26C13 29.3137 15.6863 32 19 32Z" fill="#D9D9D9"/>
</svg>
